<svg width="54" height="36" viewBox="0 0 54 36" fill="none" xmlns="http://www.w3.org/2000/svg">
<path fill-rule="evenodd" clip-rule="evenodd" d="M43.6479 0.5H53.642L51.0764 4.83817H46.0001L31.2955 29.7028H26.3776L43.6479 0.5ZM38.5016 5.46635L35.9573 9.76867H7.46356L10.7893 15.3929H32.6316L24.1686 29.7028H14.3345L11.743 25.3209H21.8422L25.168 19.6983H8.41727L0 5.46323L38.5016 5.46635ZM28.8365 35.4875C29.874 35.4875 30.715 34.627 30.715 33.5655C30.715 32.504 29.874 31.6435 28.8365 31.6435C27.7991 31.6435 26.9581 32.504 26.9581 33.5655C26.9581 34.627 27.7991 35.4875 28.8365 35.4875ZM23.6354 33.5655C23.6354 34.627 22.7944 35.4875 21.7569 35.4875C20.7195 35.4875 19.8785 34.627 19.8785 33.5655C19.8785 32.504 20.7195 31.6435 21.7569 31.6435C22.7944 31.6435 23.6354 32.504 23.6354 33.5655Z" fill="#6746CE"/>
</svg>
