<svg width="22" height="20" viewBox="0 0 22 20" fill="none" xmlns="http://www.w3.org/2000/svg">
<path fill-rule="evenodd" clip-rule="evenodd" d="M7.25 7.25C4.48858 7.25 2.25 9.48858 2.25 12.25C2.25 15.0114 4.48858 17.25 7.25 17.25C10.0114 17.25 12.25 15.0114 12.25 12.25C12.25 9.48858 10.0114 7.25 7.25 7.25ZM0.25 12.25C0.25 8.38401 3.38401 5.25 7.25 5.25C11.116 5.25 14.25 8.38401 14.25 12.25C14.25 16.116 11.116 19.25 7.25 19.25C3.38401 19.25 0.25 16.116 0.25 12.25Z" fill="black"/>
<path fill-rule="evenodd" clip-rule="evenodd" d="M4 4C4 3.44772 4.44772 3 5 3H9.5C10.0523 3 10.5 3.44772 10.5 4V6.25C10.5 6.80228 10.0523 7.25 9.5 7.25H5C4.44772 7.25 4 6.80228 4 6.25V4ZM6 5V5.25H8.5V5H6Z" fill="black"/>
<path fill-rule="evenodd" clip-rule="evenodd" d="M4.75 1.75C4.75 1.19772 5.19772 0.75 5.75 0.75H8.75C9.30228 0.75 9.75 1.19772 9.75 1.75V4C9.75 4.55228 9.30228 5 8.75 5H5.75C5.19772 5 4.75 4.55228 4.75 4V1.75ZM6.75 2.75V3H7.75V2.75H6.75Z" fill="black"/>
<path fill-rule="evenodd" clip-rule="evenodd" d="M16.2287 3.95901C15.8752 4.22411 15.75 4.51401 15.75 4.75C15.75 4.98599 15.8752 5.27589 16.2287 5.54099C16.5825 5.80632 17.117 6 17.75 6C18.383 6 18.9175 5.80632 19.2713 5.54099C19.6248 5.27589 19.75 4.98599 19.75 4.75C19.75 4.51401 19.6248 4.22411 19.2713 3.95901C18.9175 3.69368 18.383 3.5 17.75 3.5C17.117 3.5 16.5825 3.69368 16.2287 3.95901ZM15.0287 2.35901C15.7607 1.81 16.7261 1.5 17.75 1.5C18.7739 1.5 19.7393 1.81 20.4713 2.35901C21.2036 2.90825 21.75 3.74335 21.75 4.75C21.75 5.75665 21.2036 6.59175 20.4713 7.14099C19.7393 7.69 18.7739 8 17.75 8C16.7261 8 15.7607 7.69 15.0287 7.14099C14.2964 6.59175 13.75 5.75665 13.75 4.75C13.75 3.74335 14.2964 2.90825 15.0287 2.35901Z" fill="black"/>
<path fill-rule="evenodd" clip-rule="evenodd" d="M8.5 4.75C8.5 4.19772 8.94772 3.75 9.5 3.75H14.75C15.3023 3.75 15.75 4.19772 15.75 4.75C15.75 5.30228 15.3023 5.75 14.75 5.75H9.5C8.94772 5.75 8.5 5.30228 8.5 4.75Z" fill="black"/>
</svg>
