<svg width="22" height="22" viewBox="0 0 22 22" fill="none" xmlns="http://www.w3.org/2000/svg">
<path fill-rule="evenodd" clip-rule="evenodd" d="M0.5 5.53C0.5 2.75133 2.7886 0.5 5.5 0.5C7.30629 0.5 8.74726 1.48442 9.56984 2.89201C10.0427 2.83199 10.5258 2.80307 10.9983 2.803C11.4772 2.80148 11.9554 2.83147 12.4298 2.89268C13.2523 1.48472 14.6934 0.5 16.5 0.5C19.2015 0.5 21.5 2.71103 21.5 5.5C21.5 6.80423 20.9482 7.88762 20.2085 8.71255C20.6408 9.67925 21 10.7851 21 12C21 17.2119 16.4398 21.5 11 21.5C5.56018 21.5 1 17.2119 1 12C1 10.7859 1.35871 9.68074 1.79065 8.71451C1.05506 7.90142 0.5 6.83875 0.5 5.53ZM10.9983 2.803C10.9989 2.803 10.9994 2.803 11 2.803V3.803L10.9967 2.80301C10.9972 2.803 10.9978 2.803 10.9983 2.803ZM5.5 2.5C3.8914 2.5 2.5 3.85767 2.5 5.53C2.5 6.38765 2.93906 7.12442 3.65461 7.74403C4.00039 8.04346 4.09894 8.53933 3.89393 8.94821C3.37527 9.98263 3 10.9756 3 12C3 16.0091 6.56382 19.5 11 19.5C15.4362 19.5 19 16.0091 19 12C19 10.9756 18.6247 9.98263 18.1061 8.94821C17.9011 8.53933 17.9996 8.04346 18.3454 7.74403C19.053 7.13134 19.5 6.36508 19.5 5.5C19.5 3.83697 18.1185 2.5 16.5 2.5C15.3354 2.5 14.386 3.21881 13.9295 4.36894C13.7509 4.81872 13.2759 5.07612 12.8016 4.98013C12.2097 4.86033 11.6072 4.80098 11.0033 4.80299L11 4.803C10.3845 4.803 9.76195 4.86209 9.20504 4.97875C8.72888 5.0785 8.25003 4.82111 8.07055 4.36894C7.61402 3.21881 6.66464 2.5 5.5 2.5Z" fill="black"/>
<path d="M9 9.5C9.55228 9.5 10 9.05228 10 8.5C10 7.94772 9.55228 7.5 9 7.5C8.44772 7.5 8 7.94772 8 8.5C8 9.05228 8.44772 9.5 9 9.5Z" fill="black"/>
<path d="M13 9.5C13.5523 9.5 14 9.05228 14 8.5C14 7.94772 13.5523 7.5 13 7.5C12.4477 7.5 12 7.94772 12 8.5C12 9.05228 12.4477 9.5 13 9.5Z" fill="black"/>
<path d="M11 13.5C11.8284 13.5 12.5 12.8284 12.5 12C12.5 11.1716 11.8284 10.5 11 10.5C10.1716 10.5 9.5 11.1716 9.5 12C9.5 12.8284 10.1716 13.5 11 13.5Z" fill="black"/>
<path fill-rule="evenodd" clip-rule="evenodd" d="M11 11C11.5523 11 12 11.4477 12 12V16C12 16.5523 11.5523 17 11 17C10.4477 17 10 16.5523 10 16V12C10 11.4477 10.4477 11 11 11Z" fill="black"/>
<path fill-rule="evenodd" clip-rule="evenodd" d="M8.29289 14.7929C8.68342 14.4024 9.31658 14.4024 9.70711 14.7929C10.4546 15.5404 11.5454 15.5404 12.2929 14.7929C12.6834 14.4024 13.3166 14.4024 13.7071 14.7929C14.0976 15.1834 14.0976 15.8166 13.7071 16.2071C12.1786 17.7356 9.82142 17.7356 8.29289 16.2071C7.90237 15.8166 7.90237 15.1834 8.29289 14.7929Z" fill="black"/>
</svg>
