<svg width="24" height="24" viewBox="0 0 24 24" fill="none" xmlns="http://www.w3.org/2000/svg">
<g clip-path="url(#clip0_1162_10425)">
<path d="M18.0571 14.6286C16 13.0286 17.0285 11.7714 14.5143 10.4C13.0286 9.48573 10.9714 9.48573 9.48569 10.4C8.45712 10.9714 7.65712 12 7.19998 13.0286C6.97141 13.4857 6.62855 14.0572 5.94284 14.6286C4.45712 15.7714 3.77141 17.7143 4.11426 19.6572C4.79998 22.4 7.77141 24.1143 10.5143 23.2C11.4285 22.9714 12.4571 22.9714 13.3714 23.2C16.2285 24.1143 19.2 22.4 19.7714 19.6572C20.3428 17.7143 19.6571 15.7714 18.0571 14.6286ZM17.6 19.0857C17.2571 20.5714 15.6571 21.4857 14.0571 21.0286C13.3714 20.8 12.6857 20.6857 12 20.6857C11.3143 20.6857 10.6285 20.8 9.94284 21.0286C8.34284 21.4857 6.74284 20.5714 6.39998 19.0857C6.17141 18.0572 6.51426 17.0286 7.31426 16.4572C7.99998 15.8857 8.91426 15.0857 9.37141 13.8286C9.59998 13.2572 10.0571 12.6857 10.6286 12.3429C11.4286 11.8857 12.5714 11.8857 13.3714 12.3429C13.9428 12.6857 14.4 13.1429 14.6286 13.8286C15.0857 15.0857 16 15.8857 16.6857 16.4572C17.4857 17.0286 17.8285 18.0572 17.6 19.0857ZM12 8.57144C13.9428 8.57144 15.4285 6.74287 15.4285 4.57144C15.4285 2.40001 13.9428 0.571442 12 0.571442C10.0571 0.571442 8.57141 2.40001 8.57141 4.57144C8.57141 6.74287 10.0571 8.57144 12 8.57144ZM12 2.85716C12.5714 2.85716 13.1428 3.65716 13.1428 4.57144C13.1428 5.48573 12.5714 6.28573 12 6.28573C11.4285 6.28573 10.8571 5.48573 10.8571 4.57144C10.8571 3.65716 11.4285 2.85716 12 2.85716ZM22.0571 3.88573C20.5714 2.74287 18.2857 3.3143 16.9143 5.14287C15.6571 6.85716 15.8857 9.25716 17.3714 10.2857C18.8571 11.4286 21.1428 10.8572 22.5143 9.02859C23.7714 7.3143 23.6571 4.9143 22.0571 3.88573ZM20.6857 7.77144C20.1143 8.45716 19.2 8.80001 18.7428 8.45716C18.4 8.22858 18.1714 7.3143 18.8571 6.40001C19.4285 5.48573 20.3428 5.37144 20.6857 5.7143C21.2571 6.05716 21.1428 6.97144 20.6857 7.77144ZM6.62855 10.2857C8.11426 9.14287 8.34284 6.85716 7.08569 5.02858C5.71426 3.20001 3.42855 2.74287 1.94284 3.88573C0.457123 5.02858 0.228551 7.3143 1.48569 9.14287C2.85712 10.8572 5.14284 11.4286 6.62855 10.2857ZM3.31427 7.77144C2.85712 6.97144 2.74284 6.05716 3.31427 5.7143C3.65712 5.37144 4.57141 5.48573 5.14284 6.40001C5.82855 7.3143 5.71426 8.22858 5.25712 8.45716C4.79998 8.80001 3.88569 8.45716 3.31427 7.77144Z" fill="black"/>
</g>
<defs>
<clipPath id="clip0_1162_10425">
<rect width="24" height="24" fill="white"/>
</clipPath>
</defs>
</svg>
