<svg width="24" height="24" viewBox="0 0 24 24" fill="none" xmlns="http://www.w3.org/2000/svg">
<path d="M18.0799 12.42L11.8999 18.61C11.0897 19.33 10.0351 19.7133 8.95164 19.6814C7.86822 19.6495 6.83792 19.2049 6.07149 18.4384C5.30506 17.672 4.86043 16.6417 4.82853 15.5583C4.79664 14.4749 5.1799 13.4202 5.89992 12.61L13.8999 4.61C14.3775 4.1563 15.0112 3.90333 15.6699 3.90333C16.3287 3.90333 16.9623 4.1563 17.4399 4.61C17.9053 5.08159 18.1662 5.71747 18.1662 6.38C18.1662 7.04253 17.9053 7.67841 17.4399 8.15L10.5399 15.04C10.4716 15.1135 10.3895 15.1729 10.2983 15.2147C10.2071 15.2565 10.1085 15.28 10.0082 15.2837C9.90791 15.2874 9.80788 15.2713 9.7138 15.2364C9.61973 15.2014 9.53346 15.1483 9.45992 15.08C9.38638 15.0117 9.32701 14.9296 9.2852 14.8384C9.24339 14.7471 9.21996 14.6486 9.21624 14.5483C9.21253 14.448 9.2286 14.348 9.26355 14.2539C9.29849 14.1598 9.35163 14.0735 9.41992 14L14.5499 8.88C14.7382 8.6917 14.844 8.4363 14.844 8.17C14.844 7.9037 14.7382 7.6483 14.5499 7.46C14.3616 7.2717 14.1062 7.16591 13.8399 7.16591C13.5736 7.16591 13.3182 7.2717 13.1299 7.46L7.99992 12.6C7.74322 12.8547 7.53948 13.1577 7.40045 13.4915C7.26141 13.8253 7.18983 14.1834 7.18983 14.545C7.18983 14.9066 7.26141 15.2647 7.40045 15.5985C7.53948 15.9323 7.74322 16.2353 7.99992 16.49C8.52429 16.9895 9.22072 17.2681 9.94492 17.2681C10.6691 17.2681 11.3655 16.9895 11.8899 16.49L18.7799 9.59C19.5748 8.73695 20.0075 7.60867 19.987 6.44286C19.9664 5.27706 19.4941 4.16475 18.6696 3.34027C17.8452 2.51579 16.7329 2.04352 15.5671 2.02295C14.4012 2.00238 13.273 2.43512 12.4199 3.23L4.41992 11.23C3.34112 12.4248 2.76494 13.9899 2.81145 15.599C2.85795 17.2081 3.52355 18.7372 4.66956 19.8678C5.81556 20.9983 7.35359 21.6431 8.9632 21.6677C10.5728 21.6923 12.1299 21.0949 13.3099 20L19.4999 13.82C19.5932 13.7268 19.6671 13.6161 19.7176 13.4942C19.768 13.3724 19.794 13.2419 19.794 13.11C19.794 12.9781 19.768 12.8476 19.7176 12.7257C19.6671 12.6039 19.5932 12.4932 19.4999 12.4C19.4067 12.3068 19.296 12.2328 19.1742 12.1823C19.0523 12.1319 18.9218 12.1059 18.7899 12.1059C18.6581 12.1059 18.5275 12.1319 18.4057 12.1823C18.2838 12.2328 18.1732 12.3068 18.0799 12.4V12.42Z" fill="black"/>
</svg>
