<svg width="24" height="24" viewBox="0 0 24 24" fill="none" xmlns="http://www.w3.org/2000/svg">
<path d="M18.75 7.875C19.0484 7.875 19.3345 7.75647 19.5455 7.5455C19.7565 7.33452 19.875 7.04837 19.875 6.75C19.8733 5.25869 19.2801 3.82896 18.2256 2.77444C17.171 1.71993 15.7413 1.12674 14.25 1.125H7.5C7.00272 1.125 6.52581 1.32254 6.17417 1.67417C5.82254 2.02581 5.625 2.50272 5.625 3V7.5C5.625 7.99728 5.42746 8.47419 5.07583 8.82583C4.72419 9.17746 4.24728 9.375 3.75 9.375C3.45163 9.375 3.16548 9.49353 2.9545 9.7045C2.74353 9.91548 2.625 10.2016 2.625 10.5C2.625 10.7984 2.74353 11.0845 2.9545 11.2955C3.16548 11.5065 3.45163 11.625 3.75 11.625C4.77877 11.6238 5.77005 11.2387 6.52986 10.5451C7.28968 9.85154 7.76333 8.89939 7.85812 7.875H10.125V9.80813C10.1255 10.0895 10.0625 10.3673 9.94058 10.6209C9.81866 10.8745 9.64102 11.0972 9.42094 11.2725L7.92281 12.4688C7.43851 12.8545 7.04771 13.3448 6.77967 13.903C6.51164 14.4612 6.37329 15.0727 6.375 15.6919V21C6.375 21.4973 6.57254 21.9742 6.92417 22.3258C7.27581 22.6775 7.75272 22.875 8.25 22.875H18C18.4973 22.875 18.9742 22.6775 19.3258 22.3258C19.6775 21.9742 19.875 21.4973 19.875 21V19.8253C19.876 15.6632 18.8685 11.5628 16.9387 7.875H18.75ZM7.875 3.375H14.25C14.9479 3.37502 15.6287 3.59141 16.1985 3.99435C16.7683 4.3973 17.1992 4.967 17.4319 5.625H7.875V3.375ZM17.625 19.8253V20.625H8.625V15.6919C8.62446 15.4105 8.68751 15.1327 8.80942 14.8791C8.93134 14.6255 9.10898 14.4028 9.32906 14.2275L10.8291 13.0294C11.3128 12.6436 11.7031 12.1535 11.9708 11.5957C12.2385 11.0379 12.3766 10.4268 12.375 9.80813V7.875H14.3663C16.5005 11.4958 17.6258 15.6223 17.625 19.8253Z" fill="black"/>
</svg>
