<svg width="24" height="24" viewBox="0 0 24 24" fill="none" xmlns="http://www.w3.org/2000/svg">
<path fill-rule="evenodd" clip-rule="evenodd" d="M5 4C5 3.20435 5.31607 2.44129 5.87868 1.87868C6.44129 1.31607 7.20435 1 8 1H16C16.7956 1 17.5587 1.31607 18.1213 1.87868C18.6839 2.44129 19 3.20435 19 4V20C19 20.7956 18.6839 21.5587 18.1213 22.1213C17.5587 22.6839 16.7956 23 16 23H8C7.20435 23 6.44129 22.6839 5.87868 22.1213C5.31607 21.5587 5 20.7956 5 20V4ZM8 3C7.73478 3 7.48043 3.10536 7.29289 3.29289C7.10536 3.48043 7 3.73478 7 4V20C7 20.2652 7.10536 20.5196 7.29289 20.7071C7.48043 20.8946 7.73478 21 8 21H16C16.2652 21 16.5196 20.8946 16.7071 20.7071C16.8946 20.5196 17 20.2652 17 20V4C17 3.73478 16.8946 3.48043 16.7071 3.29289C16.5196 3.10536 16.2652 3 16 3H8Z" fill="black"/>
<path fill-rule="evenodd" clip-rule="evenodd" d="M13.5 20.5H10.5V18.5H13.5V20.5Z" fill="black"/>
</svg>
