<svg width="22" height="18" viewBox="0 0 22 18" fill="none" xmlns="http://www.w3.org/2000/svg">
<path fill-rule="evenodd" clip-rule="evenodd" d="M8 1.5C8 0.947715 8.44772 0.5 9 0.5H18.8489C18.8488 0.5 18.8489 0.5 18.8489 0.5C19.2612 0.499964 19.6691 0.584906 20.0471 0.749525C20.4252 0.914161 20.7652 1.15496 21.046 1.45688C21.3268 1.7588 21.5424 2.11537 21.6792 2.50432C21.8161 2.89327 21.8713 3.30626 21.8414 3.7175L21.5494 7.7175C21.4944 8.47357 21.1553 9.18081 20.6001 9.69701C20.045 10.2132 19.315 10.5001 18.557 10.5C18.557 10.5 18.557 10.5 18.557 10.5H9C8.44772 10.5 8 10.0523 8 9.5V1.5ZM10 2.5V8.5H18.557C18.8097 8.50003 19.0532 8.4044 19.2382 8.23234C19.4233 8.06027 19.5363 7.82452 19.5546 7.5725L19.8466 3.5725C19.8566 3.43542 19.8382 3.29776 19.7926 3.16811C19.747 3.03846 19.6751 2.9196 19.5815 2.81896C19.4879 2.71832 19.3746 2.63805 19.2486 2.58317C19.1225 2.5283 18.9866 2.49998 18.8491 2.5H10Z" fill="black"/>
<path fill-rule="evenodd" clip-rule="evenodd" d="M5 3C5 2.44772 5.44772 2 6 2H9C9.55228 2 10 2.44772 10 3V8C10 8.55228 9.55228 9 9 9H6C5.44772 9 5 8.55228 5 8V3ZM7 4V7H8V4H7ZM13.1052 9.15839C13.2488 8.76313 13.6244 8.5 14.045 8.5H18.5C18.8262 8.5 19.1319 8.65912 19.3191 8.92631C19.5062 9.19351 19.5513 9.53519 19.4398 9.84176L17.3953 15.4636C17.1784 16.0604 16.7831 16.5759 16.2631 16.9402C15.743 17.3045 15.1235 17.5 14.4885 17.5H14.4885C12.3421 17.5 10.8481 15.367 11.5817 13.3499C11.5817 13.3498 11.5817 13.3497 11.5817 13.3497L13.1052 9.15839ZM14.7455 10.5L13.4613 14.0331L13.4613 14.0333C13.202 14.7461 13.73 15.5 14.4885 15.5M14.7455 10.5H17.0723L15.5157 14.7802L15.5157 14.7804C15.439 14.9913 15.2993 15.1734 15.1155 15.3022C14.9318 15.4309 14.7129 15.5 14.4885 15.5" fill="black"/>
<path fill-rule="evenodd" clip-rule="evenodd" d="M0 5.5C0 4.94772 0.447715 4.5 1 4.5H6C6.55228 4.5 7 4.94772 7 5.5C7 6.05228 6.55228 6.5 6 6.5H1C0.447715 6.5 0 6.05228 0 5.5Z" fill="black"/>
</svg>
