<svg width="24" height="24" viewBox="0 0 24 24" fill="none" xmlns="http://www.w3.org/2000/svg">
<g clip-path="url(#clip0_1162_10388)">
<path fill-rule="evenodd" clip-rule="evenodd" d="M19.9344 17.3988C17.7451 15.463 14.9224 14.3962 12 14.4C9.07756 14.3962 6.25494 15.463 4.0656 17.3988C2.97871 15.8083 2.3981 13.9264 2.4 12C2.4 10.0008 3.0156 8.142 4.0656 6.6024C6.255 8.538 9.07767 9.6044 12 9.6C14.9223 9.6044 17.745 8.538 19.9344 6.6024C21.0211 8.1925 21.6017 10.074 21.6 12C21.6019 13.9264 21.0213 15.8083 19.9344 17.3988ZM12 21.6C9.66373 21.602 7.40764 20.7482 5.658 19.2C7.40764 17.6518 9.66373 16.798 12 16.8C14.4288 16.8 16.65 17.7072 18.342 19.2C16.5924 20.7482 14.3363 21.602 12 21.6ZM12 2.4C14.4288 2.4 16.65 3.3072 18.342 4.8C16.5924 6.34821 14.3363 7.20198 12 7.2C9.66373 7.20198 7.40764 6.34821 5.658 4.8C7.40764 3.2518 9.66373 2.39802 12 2.4ZM12 0C5.3808 0 0 5.3664 0 12C0 18.6228 5.3688 24 12 24C18.6264 24 24 18.6264 24 12C24 5.388 18.642 0 12 0Z" fill="black"/>
</g>
<defs>
<clipPath id="clip0_1162_10388">
<rect width="24" height="24" fill="white"/>
</clipPath>
</defs>
</svg>
