<svg width="24" height="24" viewBox="0 0 24 24" fill="none" xmlns="http://www.w3.org/2000/svg">
<path fill-rule="evenodd" clip-rule="evenodd" d="M7.12088 5.293L3.41388 9L4.89188 10.478L5.67988 9.426C6.27788 8.629 7.54688 9.087 7.49688 10.083L7.10388 17.95C7.09711 18.0853 7.11789 18.2206 7.16498 18.3476C7.21207 18.4746 7.28447 18.5907 7.3778 18.6889C7.47113 18.7871 7.58344 18.8653 7.70791 18.9188C7.83237 18.9723 7.96641 18.9999 8.10188 19H15.8979C16.0333 18.9999 16.1674 18.9723 16.2919 18.9188C16.4163 18.8653 16.5286 18.7871 16.622 18.6889C16.7153 18.5907 16.7877 18.4746 16.8348 18.3476C16.8819 18.2206 16.9027 18.0853 16.8959 17.95L16.5029 10.083C16.4529 9.087 17.7219 8.629 18.3199 9.426L19.1079 10.478L20.5859 9L16.8789 5.293C16.4999 4.915 15.9499 5 15.4649 5C15.1137 5.60821 14.6086 6.11325 14.0004 6.46433C13.3921 6.81541 12.7022 7.00016 11.9999 7C11.2976 7.00016 10.6076 6.81541 9.99937 6.46433C9.39112 6.11325 8.88603 5.60821 8.53488 5C8.04888 5 7.49888 4.915 7.12088 5.293ZM5.70688 3.879C6.26936 3.31635 7.0323 3.00017 7.82788 3H9.09988C9.57188 3 9.97188 3.297 10.1299 3.71C10.2742 4.08904 10.5303 4.41527 10.8643 4.64545C11.1983 4.87563 11.5943 4.99889 11.9999 4.99889C12.4055 4.99889 12.8015 4.87563 13.1355 4.64545C13.4694 4.41527 13.7255 4.08904 13.8699 3.71C14.0279 3.297 14.4279 3 14.8999 3H16.1719C16.9671 3.00044 17.7296 3.3166 18.2919 3.879L21.9999 7.586C22.3748 7.96106 22.5855 8.46967 22.5855 9C22.5855 9.53033 22.3748 10.0389 21.9999 10.414L20.5219 11.892C20.0019 12.412 19.2759 12.581 18.6219 12.418L18.8939 17.85C18.9142 18.2561 18.8518 18.662 18.7104 19.0432C18.569 19.4244 18.3516 19.7729 18.0714 20.0675C17.7912 20.3621 17.4541 20.5967 17.0804 20.757C16.7068 20.9173 16.3045 21 15.8979 21H8.10188C7.6953 21 7.29298 20.9173 6.91934 20.757C6.5457 20.5967 6.20854 20.3621 5.92834 20.0675C5.64813 19.7729 5.43074 19.4244 5.28936 19.0432C5.14797 18.662 5.08555 18.2561 5.10588 17.85L5.37788 12.418C5.04272 12.5019 4.69154 12.4976 4.35857 12.4054C4.02559 12.3132 3.72217 12.1363 3.47788 11.892L1.99988 10.414C1.62494 10.0389 1.41431 9.53033 1.41431 9C1.41431 8.46967 1.62494 7.96106 1.99988 7.586L5.70688 3.879Z" fill="black"/>
</svg>
