<svg width="45" height="44" viewBox="0 0 45 44" fill="none" xmlns="http://www.w3.org/2000/svg">
<rect x="0.5" width="44" height="44" rx="10" fill="#6746CE"/>
<path d="M17.8334 31.3333C17.4379 31.3333 17.0512 31.4506 16.7223 31.6704C16.3934 31.8902 16.137 32.2025 15.9857 32.568C15.8343 32.9334 15.7947 33.3356 15.8718 33.7235C15.949 34.1115 16.1395 34.4678 16.4192 34.7475C16.6989 35.0273 17.0553 35.2177 17.4432 35.2949C17.8312 35.3721 18.2333 35.3325 18.5988 35.1811C18.9642 35.0297 19.2766 34.7734 19.4964 34.4445C19.7161 34.1156 19.8334 33.7289 19.8334 33.3333C19.8334 32.8029 19.6227 32.2942 19.2476 31.9191C18.8726 31.544 18.3638 31.3333 17.8334 31.3333ZM31.8334 27.3333H15.8334C15.4798 27.3333 15.1407 27.1929 14.8906 26.9428C14.6406 26.6928 14.5001 26.3536 14.5001 26C14.5001 25.6464 14.6406 25.3072 14.8906 25.0572C15.1407 24.8071 15.4798 24.6667 15.8334 24.6667H27.155C28.0236 24.6639 28.8679 24.3797 29.5613 23.8567C30.2548 23.3336 30.76 22.6 31.0014 21.7656L33.1153 14.3665C33.172 14.1681 33.1819 13.9592 33.1442 13.7563C33.1064 13.5534 33.0221 13.362 32.8979 13.1972C32.7736 13.0325 32.6128 12.8988 32.4281 12.8067C32.2434 12.7146 32.0398 12.6667 31.8334 12.6667H15.4855C15.2095 11.8898 14.7007 11.2169 14.0284 10.7398C13.3561 10.2626 12.553 10.0042 11.7286 10H10.5001C10.1465 10 9.80732 10.1405 9.55727 10.3905C9.30722 10.6406 9.16675 10.9797 9.16675 11.3333C9.16675 11.687 9.30722 12.0261 9.55727 12.2761C9.80732 12.5262 10.1465 12.6667 10.5001 12.6667H11.7286C12.018 12.6677 12.2994 12.7624 12.5305 12.9367C12.7616 13.111 12.93 13.3554 13.0105 13.6335L13.2179 14.3598L13.2182 14.3665L15.4057 22.0228C14.3878 22.1323 13.4506 22.6279 12.7871 23.4076C12.1236 24.1873 11.7844 25.1918 11.8392 26.2141C11.894 27.2364 12.3387 28.1988 13.0818 28.9031C13.8248 29.6074 14.8096 30 15.8334 30H31.8334C32.187 30 32.5262 29.8595 32.7762 29.6095C33.0263 29.3594 33.1667 29.0203 33.1667 28.6667C33.1667 28.313 33.0263 27.9739 32.7762 27.7239C32.5262 27.4738 32.187 27.3333 31.8334 27.3333ZM30.0658 15.3333L28.4376 21.0325C28.3571 21.3108 28.1887 21.5555 27.9574 21.7299C27.7262 21.9043 27.4447 21.9991 27.155 22H18.1726L17.8327 20.8104L16.2686 15.3333H30.0658ZM28.5001 31.3333C28.1045 31.3333 27.7178 31.4506 27.3889 31.6704C27.06 31.8902 26.8037 32.2025 26.6523 32.568C26.5009 32.9334 26.4613 33.3356 26.5385 33.7235C26.6157 34.1115 26.8062 34.4678 27.0859 34.7475C27.3656 35.0273 27.7219 35.2177 28.1099 35.2949C28.4979 35.3721 28.9 35.3325 29.2654 35.1811C29.6309 35.0297 29.9433 34.7734 30.163 34.4445C30.3828 34.1156 30.5001 33.7289 30.5001 33.3333C30.5001 32.8029 30.2894 32.2942 29.9143 31.9191C29.5392 31.544 29.0305 31.3333 28.5001 31.3333Z" fill="white"/>
</svg>
