<svg width="107" height="41" viewBox="0 0 107 41" fill="none" xmlns="http://www.w3.org/2000/svg">
<rect x="0.5" y="0.5" width="106" height="40" rx="5.5" stroke="#E9E9E9"/>
<path d="M17.335 26V15.275H26.245V26H24.52V15.68L25.39 16.76H18.13L19.06 15.68V26H17.335ZM30.3469 28.91H28.6669V18.515H30.3319V20.825H29.9719C30.0419 20.325 30.2169 19.885 30.4969 19.505C30.7769 19.125 31.1369 18.825 31.5769 18.605C32.0169 18.385 32.5069 18.275 33.0469 18.275C33.7469 18.275 34.3769 18.445 34.9369 18.785C35.5069 19.125 35.9569 19.595 36.2869 20.195C36.6169 20.795 36.7819 21.48 36.7819 22.25C36.7819 23.03 36.6119 23.72 36.2719 24.32C35.9419 24.92 35.4919 25.39 34.9219 25.73C34.3519 26.07 33.7069 26.24 32.9869 26.24C32.3269 26.24 31.7569 26.105 31.2769 25.835C30.7969 25.555 30.4319 25.18 30.1819 24.71C29.9419 24.23 29.8419 23.695 29.8819 23.105L30.2269 22.835C30.2769 23.225 30.4119 23.57 30.6319 23.87C30.8519 24.17 31.1369 24.405 31.4869 24.575C31.8369 24.745 32.2169 24.83 32.6269 24.83C33.1169 24.83 33.5369 24.72 33.8869 24.5C34.2469 24.28 34.5269 23.975 34.7269 23.585C34.9269 23.195 35.0269 22.75 35.0269 22.25C35.0269 21.76 34.9319 21.32 34.7419 20.93C34.5519 20.54 34.2819 20.235 33.9319 20.015C33.5919 19.795 33.1869 19.685 32.7169 19.685C32.2569 19.685 31.8469 19.8 31.4869 20.03C31.1369 20.25 30.8569 20.56 30.6469 20.96C30.4469 21.36 30.3469 21.83 30.3469 22.37V28.91ZM38.511 26V18.515H40.131V23.84L40.011 23.795L44.151 18.515H45.621V26H44.001V20.675L44.106 20.72L39.981 26H38.511ZM47.4078 25.295V24.635H47.6478C47.8578 24.635 48.0228 24.595 48.1428 24.515C48.2728 24.425 48.3678 24.275 48.4278 24.065C48.4978 23.845 48.5528 23.54 48.5928 23.15L49.1028 18.515H54.6978V25.07H53.0478V18.785L54.2178 19.88H49.3878L50.7078 18.785L50.1678 23.285C50.1178 23.785 50.0178 24.18 49.8678 24.47C49.7278 24.76 49.5128 24.97 49.2228 25.1C48.9428 25.23 48.5628 25.295 48.0828 25.295H47.4078ZM47.0478 28.01V24.635H55.8678V28.01H54.2928V25.025L55.2378 26H48.0378L48.6378 25.025V28.01H47.0478ZM60.6395 26.24C59.3595 26.24 58.3745 25.785 57.6845 24.875C56.9945 23.965 56.6495 22.66 56.6495 20.96C56.6495 19.29 56.9395 18.035 57.5195 17.195C58.0995 16.355 59.0195 15.85 60.2795 15.68L63.5645 15.2L63.7745 16.595L60.5345 17.09C59.9745 17.18 59.5245 17.355 59.1845 17.615C58.8545 17.875 58.6145 18.265 58.4645 18.785C58.3145 19.295 58.2195 19.975 58.1795 20.825L57.9245 21.275C58.0245 20.765 58.2245 20.33 58.5245 19.97C58.8245 19.6 59.1995 19.32 59.6495 19.13C60.0995 18.93 60.5795 18.83 61.0895 18.83C61.8095 18.83 62.4195 18.985 62.9195 19.295C63.4295 19.595 63.8195 20.015 64.0895 20.555C64.3595 21.085 64.4945 21.695 64.4945 22.385C64.4945 23.155 64.3345 23.83 64.0145 24.41C63.6945 24.99 63.2445 25.44 62.6645 25.76C62.0945 26.08 61.4195 26.24 60.6395 26.24ZM60.5795 24.815C61.2595 24.815 61.7895 24.605 62.1695 24.185C62.5595 23.765 62.7545 23.19 62.7545 22.46C62.7545 21.75 62.5745 21.2 62.2145 20.81C61.8545 20.41 61.3445 20.21 60.6845 20.21C60.2945 20.21 59.9395 20.3 59.6195 20.48C59.2995 20.65 59.0245 20.89 58.7945 21.2C58.5745 21.51 58.4245 21.88 58.3445 22.31L58.4045 21.47C58.3845 22.61 58.5495 23.455 58.8995 24.005C59.2495 24.545 59.8095 24.815 60.5795 24.815ZM72.6787 26H71.1337V24.515L71.0587 24.2V21.395C71.0587 20.835 70.8787 20.4 70.5187 20.09C70.1587 19.77 69.6687 19.61 69.0487 19.61C68.5987 19.61 68.1787 19.7 67.7887 19.88C67.4087 20.06 67.0787 20.31 66.7987 20.63L65.8387 19.58C66.2487 19.17 66.7287 18.85 67.2787 18.62C67.8287 18.39 68.4387 18.275 69.1087 18.275C69.8187 18.275 70.4387 18.4 70.9687 18.65C71.5087 18.89 71.9287 19.24 72.2287 19.7C72.5287 20.16 72.6787 20.71 72.6787 21.35V26ZM68.4787 26.24C67.9087 26.24 67.4037 26.135 66.9637 25.925C66.5237 25.715 66.1837 25.43 65.9437 25.07C65.7037 24.71 65.5837 24.29 65.5837 23.81C65.5837 23.29 65.7337 22.85 66.0337 22.49C66.3337 22.12 66.7487 21.84 67.2787 21.65C67.8187 21.45 68.4387 21.35 69.1387 21.35H71.2387V22.505H69.2887C68.6987 22.505 68.2187 22.61 67.8487 22.82C67.4887 23.03 67.3087 23.34 67.3087 23.75C67.3087 24.12 67.4487 24.415 67.7287 24.635C68.0087 24.845 68.3737 24.95 68.8237 24.95C69.2537 24.95 69.6487 24.86 70.0087 24.68C70.3687 24.5 70.6537 24.255 70.8637 23.945C71.0837 23.625 71.2087 23.26 71.2387 22.85L71.7787 23.105C71.7787 23.715 71.6387 24.26 71.3587 24.74C71.0787 25.21 70.6887 25.58 70.1887 25.85C69.6887 26.11 69.1187 26.24 68.4787 26.24ZM76.4798 26V19.07H78.1598V26H76.4798ZM73.8548 19.88V18.515H80.7698V19.88H73.8548ZM82.2073 26V18.515H83.8273V23.84L83.7073 23.795L87.8473 18.515H89.3173V26H87.6973V20.675L87.8023 20.72L83.6773 26H82.2073Z" fill="#E9E9E9"/>
</svg>
