<svg width="115" height="44" viewBox="0 0 115 44" fill="none" xmlns="http://www.w3.org/2000/svg">
<rect width="115" height="44" rx="6" fill="#6746CE"/>
<path fill-rule="evenodd" clip-rule="evenodd" d="M30.3529 13.6471H24.4705L24.4705 19.5294L30.3529 19.5294V13.6471ZM22.8236 19.5521C22.8357 20.4513 23.5684 21.1765 24.4705 21.1765H30.3529C31.2626 21.1765 32 20.439 32 19.5294V13.6471C32 12.7374 31.2626 12 30.3529 12H24.4705C23.5684 12 22.8357 12.7252 22.8236 13.6243C22.8235 13.6319 22.8234 13.6395 22.8234 13.6471V19.5294C22.8234 19.537 22.8235 19.5446 22.8236 19.5521ZM21.1766 13.6471C21.1766 13.6395 21.1765 13.6319 21.1764 13.6243C21.1643 12.7252 20.4316 12 19.5295 12H13.6471C12.7374 12 12 12.7374 12 13.6471V19.5294C12 20.439 12.7374 21.1765 13.6471 21.1765H19.5295C20.4316 21.1765 21.1643 20.4513 21.1764 19.5521C21.1765 19.5446 21.1766 19.537 21.1766 19.5294V13.6471ZM22.8236 30.3757C22.8357 31.2748 23.5684 32 24.4705 32H30.3529C31.2626 32 32 31.2626 32 30.3529V24.4706C32 23.561 31.2626 22.8235 30.3529 22.8235H24.4705C23.5684 22.8235 22.8357 23.5487 22.8236 24.4479C22.8235 24.4554 22.8234 24.463 22.8234 24.4706V30.3529C22.8234 30.3605 22.8235 30.3681 22.8236 30.3757ZM21.1764 24.4479C21.1643 23.5487 20.4316 22.8235 19.5295 22.8235L13.6471 22.8235C12.7374 22.8235 12 23.561 12 24.4706V30.3529C12 31.2626 12.7374 32 13.6471 32H19.5295C20.4316 32 21.1643 31.2748 21.1764 30.3757C21.1765 30.3681 21.1766 30.3605 21.1766 30.3529V24.4706C21.1766 24.463 21.1765 24.4554 21.1764 24.4479ZM19.5295 13.6471H13.6471V19.5294L19.5295 19.5294L19.5295 13.6471ZM30.3529 24.4706H24.4705L24.4705 30.3529H30.3529V24.4706ZM19.5295 24.4706H13.6471V30.3529H19.5295L19.5295 24.4706Z" fill="white"/>
<path d="M47.06 27.5H45.335V16.775H47.06V27.5ZM54.785 27.5H52.37L46.685 21.935H46.91L51.965 16.775H54.155L48.755 22.145V21.725L54.785 27.5ZM62.3144 27.5H60.7694V26.015L60.6944 25.7V22.895C60.6944 22.335 60.5144 21.9 60.1544 21.59C59.7944 21.27 59.3044 21.11 58.6844 21.11C58.2344 21.11 57.8144 21.2 57.4244 21.38C57.0444 21.56 56.7144 21.81 56.4344 22.13L55.4744 21.08C55.8844 20.67 56.3644 20.35 56.9144 20.12C57.4644 19.89 58.0744 19.775 58.7444 19.775C59.4544 19.775 60.0744 19.9 60.6044 20.15C61.1444 20.39 61.5644 20.74 61.8644 21.2C62.1644 21.66 62.3144 22.21 62.3144 22.85V27.5ZM58.1144 27.74C57.5444 27.74 57.0394 27.635 56.5994 27.425C56.1594 27.215 55.8194 26.93 55.5794 26.57C55.3394 26.21 55.2194 25.79 55.2194 25.31C55.2194 24.79 55.3694 24.35 55.6694 23.99C55.9694 23.62 56.3844 23.34 56.9144 23.15C57.4544 22.95 58.0744 22.85 58.7744 22.85H60.8744V24.005H58.9244C58.3344 24.005 57.8544 24.11 57.4844 24.32C57.1244 24.53 56.9444 24.84 56.9444 25.25C56.9444 25.62 57.0844 25.915 57.3644 26.135C57.6444 26.345 58.0094 26.45 58.4594 26.45C58.8894 26.45 59.2844 26.36 59.6444 26.18C60.0044 26 60.2894 25.755 60.4994 25.445C60.7194 25.125 60.8444 24.76 60.8744 24.35L61.4144 24.605C61.4144 25.215 61.2744 25.76 60.9944 26.24C60.7144 26.71 60.3244 27.08 59.8244 27.35C59.3244 27.61 58.7544 27.74 58.1144 27.74ZM66.1155 27.5V20.57H67.7955V27.5H66.1155ZM63.4905 21.38V20.015H70.4055V21.38H63.4905ZM78.1201 27.5H76.5751V26.015L76.5001 25.7V22.895C76.5001 22.335 76.3201 21.9 75.9601 21.59C75.6001 21.27 75.1101 21.11 74.4901 21.11C74.0401 21.11 73.6201 21.2 73.2301 21.38C72.8501 21.56 72.5201 21.81 72.2401 22.13L71.2801 21.08C71.6901 20.67 72.1701 20.35 72.7201 20.12C73.2701 19.89 73.8801 19.775 74.5501 19.775C75.2601 19.775 75.8801 19.9 76.4101 20.15C76.9501 20.39 77.3701 20.74 77.6701 21.2C77.9701 21.66 78.1201 22.21 78.1201 22.85V27.5ZM73.9201 27.74C73.3501 27.74 72.8451 27.635 72.4051 27.425C71.9651 27.215 71.6251 26.93 71.3851 26.57C71.1451 26.21 71.0251 25.79 71.0251 25.31C71.0251 24.79 71.1751 24.35 71.4751 23.99C71.7751 23.62 72.1901 23.34 72.7201 23.15C73.2601 22.95 73.8801 22.85 74.5801 22.85H76.6801V24.005H74.7301C74.1401 24.005 73.6601 24.11 73.2901 24.32C72.9301 24.53 72.7501 24.84 72.7501 25.25C72.7501 25.62 72.8901 25.915 73.1701 26.135C73.4501 26.345 73.8151 26.45 74.2651 26.45C74.6951 26.45 75.0901 26.36 75.4501 26.18C75.8101 26 76.0951 25.755 76.3051 25.445C76.5251 25.125 76.6501 24.76 76.6801 24.35L77.2201 24.605C77.2201 25.215 77.0801 25.76 76.8001 26.24C76.5201 26.71 76.1301 27.08 75.6301 27.35C75.1301 27.61 74.5601 27.74 73.9201 27.74ZM79.2362 27.5V26.105H79.7762C80.0462 26.105 80.2462 26.04 80.3762 25.91C80.5162 25.78 80.5962 25.555 80.6162 25.235L81.0962 20.015H86.7962V27.5H85.1162V20.285L86.3162 21.38H81.4112L82.6862 20.285L82.1762 25.565C82.1062 26.285 81.9062 26.79 81.5762 27.08C81.2462 27.36 80.7412 27.5 80.0612 27.5H79.2362ZM92.5821 27.74C91.7921 27.74 91.0871 27.57 90.4671 27.23C89.8571 26.89 89.3771 26.42 89.0271 25.82C88.6771 25.22 88.5021 24.53 88.5021 23.75C88.5021 22.98 88.6771 22.295 89.0271 21.695C89.3771 21.095 89.8571 20.625 90.4671 20.285C91.0871 19.945 91.7921 19.775 92.5821 19.775C93.3821 19.775 94.0871 19.945 94.6971 20.285C95.3171 20.625 95.7971 21.095 96.1371 21.695C96.4871 22.295 96.6621 22.98 96.6621 23.75C96.6621 24.53 96.4871 25.22 96.1371 25.82C95.7971 26.42 95.3171 26.89 94.6971 27.23C94.0871 27.57 93.3821 27.74 92.5821 27.74ZM92.5821 26.33C93.0521 26.33 93.4621 26.22 93.8121 26C94.1621 25.78 94.4321 25.48 94.6221 25.1C94.8221 24.71 94.9221 24.26 94.9221 23.75C94.9221 23.25 94.8221 22.81 94.6221 22.43C94.4321 22.04 94.1621 21.735 93.8121 21.515C93.4621 21.295 93.0521 21.185 92.5821 21.185C92.1221 21.185 91.7171 21.295 91.3671 21.515C91.0171 21.735 90.7421 22.04 90.5421 22.43C90.3521 22.81 90.2571 23.25 90.2571 23.75C90.2571 24.26 90.3521 24.71 90.5421 25.1C90.7421 25.48 91.0171 25.78 91.3671 26C91.7171 26.22 92.1221 26.33 92.5821 26.33ZM98.386 27.5V20.015H103.801V21.38H98.746L100.066 20.345V27.5H98.386Z" fill="white"/>
</svg>
