<svg width="35" height="34" viewBox="0 0 35 34" fill="none" xmlns="http://www.w3.org/2000/svg">
<path d="M17.3332 12.44C18.4665 12.04 19.3732 11.1333 19.7732 9.99999H23.9998L19.9998 19.3333C19.9998 21.5467 22.0932 23.3333 24.6665 23.3333C27.2398 23.3333 29.3332 21.5467 29.3332 19.3333L25.3332 9.99999H27.9998V7.33332H19.7732C19.2265 5.77332 17.7465 4.66666 15.9998 4.66666C14.2532 4.66666 12.7732 5.77332 12.2265 7.33332H3.99984V9.99999H6.6665L2.6665 19.3333C2.6665 21.5467 4.75984 23.3333 7.33317 23.3333C9.9065 23.3333 11.9998 21.5467 11.9998 19.3333L7.99984 9.99999H12.2265C12.6265 11.1333 13.5332 12.04 14.6665 12.44V27.3333H2.6665V30H29.3332V27.3333H17.3332V12.44ZM27.1598 19.3333H22.1732L24.6665 13.52L27.1598 19.3333ZM9.8265 19.3333H4.83984L7.33317 13.52L9.8265 19.3333ZM15.9998 9.99999C15.2665 9.99999 14.6665 9.39999 14.6665 8.66666C14.6665 7.93332 15.2665 7.33332 15.9998 7.33332C16.7332 7.33332 17.3332 7.93332 17.3332 8.66666C17.3332 9.39999 16.7332 9.99999 15.9998 9.99999Z" fill="black"/>
<rect x="19" width="16" height="16" rx="8" fill="#6746CE"/>
<path d="M27.0559 3H28.5V13H26.7875V4.97203L24.5 6.67832V4.8042L27.0559 3Z" fill="white"/>
</svg>
