<svg width="20" height="19" viewBox="0 0 20 19" fill="none" xmlns="http://www.w3.org/2000/svg">
<path d="M11 5.83C11.85 5.53 12.53 4.85 12.83 4H16L13 11C13 12.66 14.57 14 16.5 14C18.43 14 20 12.66 20 11L17 4H19V2H12.83C12.42 0.83 11.31 0 10 0C8.69 0 7.58 0.83 7.17 2H1V4H3L0 11C0 12.66 1.57 14 3.5 14C5.43 14 7 12.66 7 11L4 4H7.17C7.47 4.85 8.15 5.53 9 5.83V17H0V19H20V17H11V5.83ZM18.37 11H14.63L16.5 6.64L18.37 11ZM5.37 11H1.63L3.5 6.64L5.37 11ZM10 4C9.45 4 9 3.55 9 3C9 2.45 9.45 2 10 2C10.55 2 11 2.45 11 3C11 3.55 10.55 4 10 4Z" fill="black"/>
</svg>
