<svg width="200" height="200" viewBox="0 0 200 200" fill="none" xmlns="http://www.w3.org/2000/svg">
<g clip-path="url(#clip0_1600_14074)">
<path d="M99.8212 174.072C140.986 174.072 174.357 140.701 174.357 99.536C174.357 58.3709 140.986 25 99.8212 25C58.6561 25 25.2852 58.3709 25.2852 99.536C25.2852 140.701 58.6561 174.072 99.8212 174.072Z" fill="url(#paint0_linear_1600_14074)"/>
<g filter="url(#filter0_d_1600_14074)">
<rect x="61.9316" y="46.4641" width="77.3542" height="96.2936" rx="16" fill="white"/>
</g>
<rect x="68.7646" y="58.8868" width="50" height="1" rx="0.5" fill="#291F48"/>
<rect x="68.7646" y="77.8868" width="62.1134" height="1" rx="0.5" fill="#D5D5D5"/>
<rect x="68.7646" y="96.8868" width="62.1134" height="1" rx="0.5" fill="#D5D5D5"/>
<rect x="68.7646" y="115.887" width="62.1134" height="1" rx="0.5" fill="#D5D5D5"/>
<rect x="68.7646" y="134.887" width="62.1134" height="1" rx="0.5" fill="#D5D5D5"/>
<g filter="url(#filter1_d_1600_14074)">
<path d="M185.63 35.8225H148.312C146.573 35.8225 145.163 37.3061 145.163 39.1362V57.5958C145.163 59.4259 146.573 60.9094 148.312 60.9094H185.63C187.369 60.9094 188.778 59.4259 188.778 57.5958V39.1362C188.778 37.3061 187.369 35.8225 185.63 35.8225Z" fill="white"/>
</g>
<path d="M154.481 52.3298C156.539 52.3298 158.208 50.6613 158.208 48.603C158.208 46.5448 156.539 44.8762 154.481 44.8762C152.422 44.8762 150.754 46.5448 150.754 48.603C150.754 50.6613 152.422 52.3298 154.481 52.3298Z" fill="#CCC6D9"/>
<rect x="163.177" y="44.8762" width="19.8763" height="7.4536" rx="3.7268" fill="#D5D5D5"/>
<path fill-rule="evenodd" clip-rule="evenodd" d="M115.77 144.748C123.607 146.355 131.377 145.478 138.262 142.655L158.179 171.373L169.297 162.794L150.077 135.083C155.764 129.777 159.916 122.715 161.597 114.516C165.903 93.5128 152.368 72.9953 131.365 68.689C110.361 64.3826 89.844 77.9181 85.5376 98.9214C81.2313 119.925 94.7668 140.442 115.77 144.748ZM156.005 113.369C152.359 131.151 134.989 142.61 117.207 138.965C99.4257 135.319 87.9664 117.948 91.6122 100.167C95.258 82.3853 112.628 70.9259 130.41 74.5717C148.192 78.2175 159.651 95.5879 156.005 113.369Z" fill="#CCC6D9"/>
<g filter="url(#filter2_b_1600_14074)">
<path d="M121.871 141.773C140.567 141.773 155.723 126.756 155.723 108.232C155.723 89.7076 140.567 74.6906 121.871 74.6906C103.175 74.6906 88.0195 89.7076 88.0195 108.232C88.0195 126.756 103.175 141.773 121.871 141.773Z" fill="white" fill-opacity="0.3"/>
</g>
<path d="M124.874 108.5L129.358 104.033C129.778 103.591 130.008 103.004 130 102.396C129.991 101.788 129.744 101.208 129.312 100.778C128.879 100.348 128.295 100.102 127.683 100.094C127.072 100.085 126.481 100.314 126.036 100.732L121.542 105.198L117.058 100.732C116.842 100.505 116.583 100.323 116.295 100.197C116.007 100.072 115.697 100.005 115.383 100C115.069 99.9958 114.757 100.054 114.466 100.172C114.175 100.289 113.91 100.463 113.688 100.684C113.466 100.905 113.291 101.168 113.173 101.457C113.054 101.746 112.996 102.056 113 102.369C113.005 102.681 113.072 102.989 113.198 103.275C113.325 103.561 113.508 103.819 113.736 104.033L118.228 108.5L113.736 112.967C113.508 113.181 113.325 113.439 113.198 113.725C113.072 114.011 113.005 114.319 113 114.631C112.996 114.944 113.054 115.254 113.173 115.543C113.291 115.832 113.466 116.095 113.688 116.316C113.91 116.537 114.175 116.711 114.466 116.829C114.757 116.946 115.069 117.004 115.383 117C115.697 116.995 116.007 116.928 116.295 116.803C116.583 116.677 116.842 116.496 117.058 116.269L121.552 111.802L126.046 116.269C126.495 116.661 127.078 116.869 127.676 116.85C128.273 116.831 128.841 116.586 129.264 116.165C129.686 115.744 129.931 115.179 129.948 114.585C129.966 113.99 129.755 113.412 129.358 112.967L124.874 108.5Z" fill="#6746CE"/>
<path d="M157.711 170.063L168.788 161.431L169.883 162.995C170.946 164.512 171.382 166.421 171.095 168.303C170.809 170.185 169.823 171.885 168.354 173.029C166.886 174.173 165.056 174.668 163.266 174.404C161.476 174.141 159.873 173.14 158.811 171.623L157.715 170.06L157.711 170.063Z" fill="#E1DCEB"/>
<path fill-rule="evenodd" clip-rule="evenodd" d="M41.6309 63.6169C41.6192 62.7312 41.5081 61.8378 41.2858 60.9383C40.5065 57.7816 37.0295 55.7551 33.3287 55.2786C29.6295 54.8021 25.7825 55.8864 24.2999 58.6322C23.4519 60.2022 23.3349 61.5552 23.6814 62.696C24.0265 63.8307 24.8452 64.7714 25.9565 65.5045C29.0548 67.5463 34.4809 67.9632 36.9564 67.1095C38.1012 66.714 39.2198 66.2375 40.3091 65.6923C39.6862 69.2613 37.3657 72.6425 34.2689 75.6892C27.5386 82.3109 17.0944 87.3368 11.4066 89.1847C11.101 89.284 10.9314 89.623 11.0264 89.9422C11.1214 90.2613 11.446 90.44 11.7516 90.3408C17.552 88.4562 28.1995 83.3235 35.0629 76.5703C38.6086 73.0823 41.1352 69.1559 41.5665 65.028C49.5821 60.555 56.1647 52.4396 61.7926 45.6101C62.0017 45.3582 61.9739 44.9748 61.7312 44.7564C61.4885 44.5396 61.1229 44.5671 60.9138 44.8206C55.5155 51.3706 49.2502 59.1622 41.6309 63.6169ZM40.4656 64.266C40.5094 63.2703 40.4158 62.2593 40.1628 61.2391C39.4888 58.507 36.3905 56.8913 33.1869 56.479C31.2232 56.227 29.204 56.4347 27.6205 57.1738C26.6247 57.6381 25.8044 58.3116 25.3102 59.2278C24.661 60.4297 24.5206 61.4575 24.7868 62.3295C25.0529 63.2076 25.7138 63.9132 26.575 64.4797C29.3985 66.3414 34.3391 66.7369 36.5923 65.9596C37.9214 65.5015 39.211 64.9303 40.4656 64.266Z" fill="#291F48"/>
<circle cx="183.676" cy="121.276" r="3.7268" fill="#6746CE"/>
<path fill-rule="evenodd" clip-rule="evenodd" d="M42.9159 146.987C43.581 146.738 44.2809 146.406 44.8206 145.926C45.4616 145.356 45.7223 144.622 45.8974 143.849C46.1222 142.856 46.212 141.799 46.4845 140.805C46.5854 140.435 46.7796 140.296 46.8629 140.234C47.0735 140.077 47.2864 140.035 47.4867 140.051C47.7241 140.069 48.0502 140.164 48.2646 140.582C48.2952 140.642 48.3349 140.734 48.3617 140.859C48.3812 140.951 48.3938 141.237 48.4144 141.356C48.466 141.647 48.5092 141.938 48.5497 142.231C48.6847 143.206 48.7623 144.033 49.1885 144.929C49.7668 146.145 50.3463 146.888 51.1321 147.218C51.892 147.536 52.8006 147.477 53.9614 147.227C54.0719 147.199 54.1812 147.174 54.2894 147.155C54.8012 147.061 55.2905 147.414 55.391 147.951C55.4915 148.487 55.1662 149.01 54.659 149.127C54.5531 149.152 54.4488 149.175 54.3456 149.197C52.7769 149.605 50.9609 151.064 49.9055 152.341C49.5802 152.735 49.104 153.836 48.6182 154.538C48.2596 155.056 47.8567 155.398 47.5185 155.519C47.2918 155.6 47.1007 155.587 46.9428 155.546C46.7135 155.487 46.5231 155.356 46.3771 155.148C46.2976 155.034 46.2238 154.882 46.1887 154.687C46.1718 154.593 46.1699 154.355 46.1703 154.247C46.0713 153.889 45.9501 153.539 45.8619 153.177C45.6512 152.315 45.238 151.768 44.7472 151.047C44.2882 150.371 43.7951 149.947 43.0723 149.608C42.9783 149.584 42.2195 149.388 41.9516 149.276C41.5602 149.112 41.3736 148.836 41.306 148.688C41.1909 148.436 41.1791 148.216 41.202 148.032C41.236 147.762 41.3515 147.53 41.5564 147.343C41.6833 147.227 41.8728 147.114 42.1266 147.059C42.3227 147.015 42.8429 146.991 42.9159 146.987ZM47.3671 145.581C47.4023 145.663 47.4397 145.746 47.4795 145.83C48.3265 147.61 49.2737 148.604 50.425 149.086L50.4636 149.102C49.6934 149.704 48.9962 150.376 48.4633 151.021C48.2439 151.287 47.9534 151.838 47.6396 152.404C47.3545 151.428 46.8882 150.739 46.3018 149.876C45.8538 149.218 45.3844 148.722 44.8076 148.318C45.2552 148.076 45.6822 147.793 46.0541 147.462C46.6733 146.912 47.0827 146.274 47.3671 145.581Z" fill="#6746CE"/>
</g>
<defs>
<filter id="filter0_d_1600_14074" x="31.9316" y="36.4641" width="137.354" height="156.294" filterUnits="userSpaceOnUse" color-interpolation-filters="sRGB">
<feFlood flood-opacity="0" result="BackgroundImageFix"/>
<feColorMatrix in="SourceAlpha" type="matrix" values="0 0 0 0 0 0 0 0 0 0 0 0 0 0 0 0 0 0 127 0" result="hardAlpha"/>
<feOffset dy="20"/>
<feGaussianBlur stdDeviation="15"/>
<feComposite in2="hardAlpha" operator="out"/>
<feColorMatrix type="matrix" values="0 0 0 0 0.570833 0 0 0 0 0.570833 0 0 0 0 0.570833 0 0 0 0.19 0"/>
<feBlend mode="normal" in2="BackgroundImageFix" result="effect1_dropShadow_1600_14074"/>
<feBlend mode="normal" in="SourceGraphic" in2="effect1_dropShadow_1600_14074" result="shape"/>
</filter>
<filter id="filter1_d_1600_14074" x="138.163" y="26.8225" width="69.6152" height="51.0869" filterUnits="userSpaceOnUse" color-interpolation-filters="sRGB">
<feFlood flood-opacity="0" result="BackgroundImageFix"/>
<feColorMatrix in="SourceAlpha" type="matrix" values="0 0 0 0 0 0 0 0 0 0 0 0 0 0 0 0 0 0 127 0" result="hardAlpha"/>
<feOffset dx="6" dy="4"/>
<feGaussianBlur stdDeviation="6.5"/>
<feComposite in2="hardAlpha" operator="out"/>
<feColorMatrix type="matrix" values="0 0 0 0 0.104618 0 0 0 0 0.465612 0 0 0 0 0.545833 0 0 0 0.09 0"/>
<feBlend mode="normal" in2="BackgroundImageFix" result="effect1_dropShadow_1600_14074"/>
<feBlend mode="normal" in="SourceGraphic" in2="effect1_dropShadow_1600_14074" result="shape"/>
</filter>
<filter id="filter2_b_1600_14074" x="80.0195" y="66.6906" width="83.7031" height="83.0824" filterUnits="userSpaceOnUse" color-interpolation-filters="sRGB">
<feFlood flood-opacity="0" result="BackgroundImageFix"/>
<feGaussianBlur in="BackgroundImageFix" stdDeviation="4"/>
<feComposite in2="SourceAlpha" operator="in" result="effect1_backgroundBlur_1600_14074"/>
<feBlend mode="normal" in="SourceGraphic" in2="effect1_backgroundBlur_1600_14074" result="shape"/>
</filter>
<linearGradient id="paint0_linear_1600_14074" x1="99.2466" y1="0.729204" x2="100.774" y2="262.488" gradientUnits="userSpaceOnUse">
<stop stop-color="#F2F2F2"/>
<stop offset="1" stop-color="#EFEFEF"/>
</linearGradient>
<clipPath id="clip0_1600_14074">
<rect width="200" height="200" fill="white"/>
</clipPath>
</defs>
</svg>
