<svg width="144" height="36" viewBox="0 0 144 36" fill="none" xmlns="http://www.w3.org/2000/svg">
<g clip-path="url(#clip0_655_14168)">
<path d="M40.124 12.8692C40.9695 12.5745 41.9385 12.4748 43.0308 12.5699C44.1232 12.665 45.1896 13.0344 46.2286 13.6782C47.7018 14.5916 48.7241 15.7218 49.0136 16.9564C49.3015 18.1925 49.0349 19.6687 48.2122 21.0607L43.0902 29.7215H38.0125L43.6295 20.1956C44.178 19.2681 44.3502 18.3141 44.1445 17.6578C43.9388 17.0016 43.4193 16.417 42.589 15.901C41.323 15.117 39.9579 15.0234 38.4939 15.6236" fill="black"/>
<path d="M65.6317 27.2305C64.0854 28.8922 62.0317 29.7215 59.4692 29.7215C56.9067 29.7215 54.8576 28.8906 53.3235 27.2305C51.7878 25.5688 51.0215 23.5299 51.0215 21.1122C51.0215 18.6944 51.7878 16.6602 53.3235 15.011C54.8576 13.3618 56.9067 12.5356 59.4692 12.5356C62.0317 12.5356 64.0854 13.3602 65.6317 15.011C67.1781 16.6602 67.9505 18.6944 67.9505 21.1122C67.9505 23.5299 67.1765 25.5688 65.6317 27.2305ZM56.4862 24.5182C57.2145 25.4332 58.2093 25.8915 59.4677 25.8915C60.7261 25.8915 61.7255 25.4332 62.4659 24.5182C63.2048 23.6031 63.575 22.4668 63.575 21.1122C63.575 19.7794 63.2048 18.6539 62.4659 17.7389C61.7255 16.8239 60.7261 16.3656 59.4677 16.3656C58.2093 16.3656 57.2145 16.8223 56.4862 17.7389C55.758 18.6539 55.3924 19.7778 55.3924 21.1122C55.3939 22.4683 55.758 23.6031 56.4862 24.5182Z" fill="black"/>
<path d="M78.9821 29.6966C76.9726 29.6966 75.3257 28.861 74.046 27.1884V35.5016H69.8381V12.5107H74.046V14.9845C75.3044 13.3353 76.9498 12.5107 78.9821 12.5107C81.0799 12.5107 82.7863 13.2714 84.101 14.7974C85.4143 16.3235 86.0724 18.4185 86.0724 21.0857C86.0724 23.7528 85.4143 25.8541 84.101 27.3911C82.7863 28.9281 81.0815 29.6966 78.9821 29.6966ZM77.6567 25.865C78.8709 25.865 79.849 25.4238 80.5894 24.5431C81.3298 23.6624 81.7 22.5089 81.7 21.0857C81.7 19.6843 81.3298 18.5433 80.5894 17.6625C79.849 16.7818 78.8724 16.3407 77.6567 16.3407C76.9711 16.3407 76.2871 16.5215 75.603 16.8831C74.9174 17.2448 74.3995 17.6859 74.046 18.205V24.0022C74.3995 24.5229 74.9235 24.9624 75.6198 25.3241C76.316 25.6842 76.994 25.865 77.6567 25.865Z" fill="black"/>
<path d="M95.1053 29.7215C93.7143 29.7215 92.3828 29.4955 91.1137 29.0434C89.8432 28.5914 88.7889 27.9709 87.9495 27.1791L89.7716 24.1628C90.3901 24.7504 91.2295 25.2695 92.2899 25.7216C93.3502 26.1736 94.3542 26.3997 95.3049 26.3997C96.1885 26.3997 96.8558 26.2422 97.3098 25.9242C97.7622 25.6078 97.9892 25.1791 97.9892 24.6366C97.9892 24.2298 97.7516 23.8962 97.2763 23.6359C96.8009 23.3756 96.2159 23.1901 95.5197 23.0763C94.8234 22.964 94.0617 22.7941 93.2344 22.5681C92.4057 22.3421 91.6439 22.0708 90.9477 21.7544C90.2515 21.438 89.6664 20.936 89.1911 20.2455C88.7158 19.5565 88.4781 18.7022 88.4781 17.6859C88.4781 16.2393 89.0631 15.0188 90.2347 14.0243C91.4047 13.0297 93.0059 12.5325 95.0383 12.5325C97.5124 12.5325 99.6651 13.2776 101.499 14.7694L99.8098 17.7186C99.301 17.1762 98.6215 16.7241 97.7729 16.3625C96.9228 16.0008 96.0224 15.82 95.0733 15.82C94.3222 15.82 93.7143 15.9728 93.2512 16.2767C92.7865 16.5823 92.555 16.972 92.555 17.4458C92.555 17.8075 92.7865 18.1068 93.2512 18.3437C93.7143 18.5807 94.2994 18.7568 95.0078 18.869C95.7147 18.9828 96.4764 19.1574 97.293 19.3944C98.1096 19.6313 98.8713 19.915 99.5798 20.2424C100.287 20.5697 100.872 21.095 101.336 21.8183C101.799 22.5416 102.033 23.4239 102.033 24.4621C102.033 25.999 101.42 27.2586 100.194 28.2422C98.9658 29.2305 97.2702 29.7215 95.1053 29.7215Z" fill="black"/>
<path d="M111.097 29.7215C109.616 29.7215 108.524 29.3365 107.75 28.5695C106.976 27.801 106.591 26.6943 106.591 25.2477V16.2986H103.94V12.5106H106.591V8.06024H110.799V12.5106H114.045V16.297H110.799V24.0942C110.799 24.6148 110.931 25.0435 111.196 25.3818C111.461 25.7216 111.815 25.8899 112.257 25.8899C112.919 25.8899 113.405 25.7325 113.715 25.416L114.609 28.6708C113.835 29.3708 112.665 29.7215 111.097 29.7215Z" fill="black"/>
<path d="M125.045 29.7215C122.571 29.7215 120.528 28.9312 118.916 27.349C117.304 25.7668 116.498 23.6873 116.498 21.1122C116.498 18.6944 117.277 16.6602 118.834 15.011C120.391 13.3618 122.373 12.5356 124.781 12.5356C127.167 12.5356 129.099 13.3664 130.58 15.0266C132.059 16.6883 132.799 18.8628 132.799 21.5518V22.5011H120.904C121.037 23.586 121.512 24.4901 122.328 25.2134C123.145 25.9367 124.205 26.2983 125.509 26.2983C126.216 26.2983 126.984 26.1518 127.811 25.8572C128.64 25.5641 129.297 25.1682 129.783 24.6709L131.638 27.4503C130.025 28.9655 127.828 29.7215 125.045 29.7215ZM128.723 19.5861C128.655 18.6602 128.297 17.8231 127.645 17.078C126.993 16.3328 126.038 15.9587 124.78 15.9587C123.587 15.9587 122.659 16.3266 121.996 17.0608C121.334 17.795 120.947 18.6368 120.837 19.5861H128.723Z" fill="black"/>
<path d="M138.899 29.7028H134.691V12.5107H138.899L138.898 15.1544C139.493 14.3859 140.257 13.753 141.183 13.2558C142.111 12.7585 143.049 12.5107 143.998 12.5107V16.7148C143.71 16.6462 143.325 16.6134 142.839 16.6134C142.132 16.6134 141.381 16.7943 140.586 17.1559C139.791 17.5176 139.227 17.9587 138.896 18.4778L138.899 29.7028Z" fill="black"/>
<path fill-rule="evenodd" clip-rule="evenodd" d="M43.6479 0.5H53.642L51.0764 4.83817H46.0001L31.2955 29.7028H26.3776L43.6479 0.5ZM38.5016 5.46635L35.9573 9.76867H7.46356L10.7893 15.3929H32.6316L24.1686 29.7028H14.3345L11.743 25.3209H21.8422L25.168 19.6983H8.41727L0 5.46323L38.5016 5.46635ZM28.8365 35.4875C29.874 35.4875 30.715 34.627 30.715 33.5655C30.715 32.504 29.874 31.6435 28.8365 31.6435C27.7991 31.6435 26.9581 32.504 26.9581 33.5655C26.9581 34.627 27.7991 35.4875 28.8365 35.4875ZM23.6354 33.5655C23.6354 34.627 22.7944 35.4875 21.7569 35.4875C20.7195 35.4875 19.8785 34.627 19.8785 33.5655C19.8785 32.504 20.7195 31.6435 21.7569 31.6435C22.7944 31.6435 23.6354 32.504 23.6354 33.5655Z" fill="#6746CE"/>
</g>
<defs>
<clipPath id="clip0_655_14168">
<rect width="144" height="35" fill="white" transform="translate(0 0.5)"/>
</clipPath>
</defs>
</svg>
