<svg width="145" height="24" viewBox="0 0 145 24" fill="none" xmlns="http://www.w3.org/2000/svg">
<path fill-rule="evenodd" clip-rule="evenodd" d="M10.5021 1.40264C10.9577 1.14014 11.4742 1.00195 12 1.00195C12.5258 1.00195 13.0424 1.14015 13.4979 1.40267C13.4986 1.40307 13.4993 1.40348 13.5 1.40388L20.5 5.40387C20.9556 5.66692 21.334 6.04515 21.5973 6.50062C21.8606 6.95609 21.9995 7.47279 22 7.99888V16.0009C21.9995 16.527 21.8606 17.0437 21.5973 17.4992C21.334 17.9547 20.9556 18.3329 20.5 18.5959L20.4961 18.5981L13.5 22.5959C13.4994 22.5963 13.4988 22.5966 13.4982 22.597C13.0426 22.8596 12.5259 22.9979 12 22.9979C11.4741 22.9979 10.9575 22.8596 10.5019 22.597C10.5012 22.5966 10.5006 22.5963 10.5 22.5959L3.50386 18.5981L3.5 18.5959C3.04439 18.3329 2.66597 17.9547 2.40269 17.4992C2.13941 17.0437 2.00054 16.527 2 16.0009V7.99888C2.00054 7.47279 2.13941 6.95609 2.40269 6.50062C2.66597 6.04515 3.04439 5.66692 3.5 5.40388L3.50386 5.40165L10.5021 1.40264ZM12 3.00195C11.8245 3.00195 11.652 3.04816 11.5 3.13593L11.4961 3.13815L4.5 7.13593C4.49947 7.13623 4.49895 7.13654 4.49842 7.13684C4.34726 7.22448 4.22169 7.35021 4.13423 7.50151C4.04654 7.65321 4.00025 7.82528 4 8.0005V15.9993C4.00025 16.1745 4.04654 16.3466 4.13423 16.4983C4.22169 16.6496 4.34726 16.7753 4.49842 16.863C4.49895 16.8633 4.49947 16.8636 4.5 16.8639L11.5 20.8639C11.652 20.9516 11.8245 20.9979 12 20.9979C12.1755 20.9979 12.348 20.9516 12.5 20.8639L12.5039 20.8617L19.5 16.8639C19.5005 16.8636 19.5011 16.8633 19.5016 16.863C19.6527 16.7753 19.7783 16.6496 19.8658 16.4983C19.9535 16.3465 19.9998 16.1742 20 15.9989V8.00093C19.9998 7.82556 19.9535 7.65333 19.8658 7.50151C19.7783 7.35021 19.6527 7.22449 19.5016 7.13685C19.5011 7.13654 19.5005 7.13623 19.5 7.13593L12.5 3.13594C12.348 3.04817 12.1755 3.00195 12 3.00195Z" fill="#757575"/>
<path fill-rule="evenodd" clip-rule="evenodd" d="M2.43296 6.5014C2.70815 6.02256 3.31942 5.85747 3.79826 6.13267L12 10.8463L20.2017 6.13267C20.6805 5.85747 21.2918 6.02256 21.567 6.5014C21.8422 6.98024 21.6771 7.5915 21.1983 7.86669L13 12.5784V21.9997C13 22.552 12.5523 22.9997 12 22.9997C11.4477 22.9997 11 22.552 11 21.9997V12.5784L2.80169 7.86669C2.32285 7.5915 2.15776 6.98024 2.43296 6.5014Z" fill="#757575"/>
<path d="M40.744 17V8.42H42.364V17H40.744ZM36.652 17H35.032V8.42H36.652V17ZM36.532 13.28V11.9H40.864V13.28H36.532ZM49.3024 15.116L50.1424 16.088C49.8384 16.432 49.4464 16.704 48.9664 16.904C48.4944 17.096 47.9704 17.192 47.3944 17.192C46.6984 17.192 46.0864 17.056 45.5584 16.784C45.0304 16.512 44.6184 16.136 44.3224 15.656C44.0264 15.176 43.8784 14.62 43.8784 13.988C43.8784 13.356 44.0184 12.8 44.2984 12.32C44.5864 11.832 44.9744 11.452 45.4624 11.18C45.9584 10.908 46.5144 10.772 47.1304 10.772C47.7304 10.772 48.2624 10.908 48.7264 11.18C49.1984 11.444 49.5664 11.812 49.8304 12.284C50.0944 12.756 50.2264 13.304 50.2264 13.928V14H48.6784V13.832C48.6784 13.464 48.6104 13.144 48.4744 12.872C48.3464 12.6 48.1664 12.388 47.9344 12.236C47.7104 12.084 47.4424 12.008 47.1304 12.008C46.8024 12.008 46.5144 12.088 46.2664 12.248C46.0184 12.4 45.8224 12.624 45.6784 12.92C45.5424 13.208 45.4744 13.552 45.4744 13.952C45.4744 14.376 45.5584 14.74 45.7264 15.044C45.9024 15.34 46.1384 15.568 46.4344 15.728C46.7384 15.88 47.0864 15.956 47.4784 15.956C48.1984 15.956 48.8064 15.676 49.3024 15.116ZM50.2264 14.468H44.8984V13.46H50.0344L50.2264 13.928V14.468ZM51.5507 17V10.964H53.1707L55.3067 15.008H55.0787L57.1667 10.964H58.8467V17H57.4307V11.492L57.9827 11.948L55.6667 16.376H54.6467L52.3307 11.948L52.9187 11.552V17H51.5507ZM65.9518 17H64.5118V15.788L64.4398 15.596V13.328C64.4398 12.904 64.3038 12.576 64.0318 12.344C63.7598 12.112 63.3878 11.996 62.9158 11.996C62.5718 11.996 62.2478 12.064 61.9438 12.2C61.6478 12.328 61.3878 12.512 61.1638 12.752L60.3358 11.792C60.6558 11.472 61.0438 11.224 61.4998 11.048C61.9558 10.864 62.4518 10.772 62.9878 10.772C63.5718 10.772 64.0878 10.872 64.5358 11.072C64.9838 11.272 65.3318 11.56 65.5798 11.936C65.8278 12.304 65.9518 12.756 65.9518 13.292V17ZM62.4598 17.192C61.9958 17.192 61.5878 17.108 61.2358 16.94C60.8838 16.772 60.6078 16.54 60.4078 16.244C60.2158 15.948 60.1198 15.604 60.1198 15.212C60.1198 14.796 60.2398 14.444 60.4798 14.156C60.7198 13.86 61.0598 13.632 61.4998 13.472C61.9478 13.312 62.4638 13.232 63.0478 13.232H64.5958V14.264H63.1678C62.7358 14.264 62.3878 14.34 62.1238 14.492C61.8598 14.644 61.7278 14.864 61.7278 15.152C61.7278 15.416 61.8278 15.624 62.0278 15.776C62.2358 15.928 62.5038 16.004 62.8318 16.004C63.1438 16.004 63.4278 15.94 63.6838 15.812C63.9398 15.676 64.1478 15.492 64.3078 15.26C64.4678 15.028 64.5598 14.764 64.5838 14.468L65.0398 14.684C65.0398 15.18 64.9318 15.616 64.7158 15.992C64.4998 16.368 64.1958 16.664 63.8038 16.88C63.4198 17.088 62.9718 17.192 62.4598 17.192ZM70.3464 17.192C69.6824 17.192 69.1024 17.06 68.6064 16.796C68.1104 16.524 67.7264 16.148 67.4544 15.668C67.1824 15.188 67.0464 14.628 67.0464 13.988C67.0464 13.348 67.1864 12.788 67.4664 12.308C67.7464 11.828 68.1344 11.452 68.6304 11.18C69.1264 10.908 69.6944 10.772 70.3344 10.772C70.8944 10.772 71.3984 10.876 71.8464 11.084C72.3024 11.292 72.6864 11.592 72.9984 11.984L72.0624 12.908C71.8704 12.628 71.6344 12.412 71.3544 12.26C71.0744 12.108 70.7544 12.032 70.3944 12.032C69.8504 12.032 69.4224 12.208 69.1104 12.56C68.7984 12.904 68.6424 13.384 68.6424 14C68.6424 14.6 68.7984 15.072 69.1104 15.416C69.4224 15.76 69.8504 15.932 70.3944 15.932C70.7624 15.932 71.0864 15.856 71.3664 15.704C71.6544 15.552 71.8944 15.332 72.0864 15.044L73.0344 15.968C72.7064 16.36 72.3144 16.664 71.8584 16.88C71.4104 17.088 70.9064 17.192 70.3464 17.192ZM67.5984 14.468V13.424H71.5824V14.468H67.5984ZM76.5819 17V10.964H79.6899C80.3619 10.964 80.8899 11.112 81.2739 11.408C81.6659 11.696 81.8619 12.088 81.8619 12.584C81.8619 12.896 81.7699 13.164 81.5859 13.388C81.4099 13.612 81.1659 13.784 80.8539 13.904L80.8419 13.796C81.2259 13.9 81.5379 14.084 81.7779 14.348C82.0259 14.604 82.1499 14.916 82.1499 15.284C82.1499 15.62 82.0459 15.92 81.8379 16.184C81.6379 16.448 81.3619 16.652 81.0099 16.796C80.6579 16.932 80.2579 17 79.8099 17H76.5819ZM78.0099 16.592L77.2299 15.86H79.5699C79.9139 15.86 80.1699 15.8 80.3379 15.68C80.5139 15.56 80.6019 15.38 80.6019 15.14C80.6019 14.9 80.5139 14.72 80.3379 14.6C80.1699 14.48 79.9139 14.42 79.5699 14.42H77.3619V13.388H79.4379C79.7579 13.388 79.9819 13.332 80.1099 13.22C80.2459 13.108 80.3139 12.944 80.3139 12.728C80.3139 12.512 80.2459 12.356 80.1099 12.26C79.9819 12.156 79.7579 12.104 79.4379 12.104H77.1699L78.0099 11.336V16.592ZM89.9594 17V10.964H91.5434V17H89.9594ZM85.6874 17V10.964H87.2714V17H85.6874ZM86.4314 14.468V13.196H90.8834V14.468H86.4314ZM98.6471 17H97.2071V15.788L97.1351 15.596V13.328C97.1351 12.904 96.9991 12.576 96.7271 12.344C96.4551 12.112 96.0831 11.996 95.6111 11.996C95.2671 11.996 94.9431 12.064 94.6391 12.2C94.3431 12.328 94.0831 12.512 93.8591 12.752L93.0311 11.792C93.3511 11.472 93.7391 11.224 94.1951 11.048C94.6511 10.864 95.1471 10.772 95.6831 10.772C96.2671 10.772 96.7831 10.872 97.2311 11.072C97.6791 11.272 98.0271 11.56 98.2751 11.936C98.5231 12.304 98.6471 12.756 98.6471 13.292V17ZM95.1551 17.192C94.6911 17.192 94.2831 17.108 93.9311 16.94C93.5791 16.772 93.3031 16.54 93.1031 16.244C92.9111 15.948 92.8151 15.604 92.8151 15.212C92.8151 14.796 92.9351 14.444 93.1751 14.156C93.4151 13.86 93.7551 13.632 94.1951 13.472C94.6431 13.312 95.1591 13.232 95.7431 13.232H97.2911V14.264H95.8631C95.4311 14.264 95.0831 14.34 94.8191 14.492C94.5551 14.644 94.4231 14.864 94.4231 15.152C94.4231 15.416 94.5231 15.624 94.7231 15.776C94.9311 15.928 95.1991 16.004 95.5271 16.004C95.8391 16.004 96.1231 15.94 96.3791 15.812C96.6351 15.676 96.8431 15.492 97.0031 15.26C97.1631 15.028 97.2551 14.764 97.2791 14.468L97.7351 14.684C97.7351 15.18 97.6271 15.616 97.4111 15.992C97.1951 16.368 96.8911 16.664 96.4991 16.88C96.1151 17.088 95.6671 17.192 95.1551 17.192ZM103.858 17V11.168L104.878 12.14H102.454C102.174 12.14 101.942 12.204 101.758 12.332C101.582 12.46 101.494 12.66 101.494 12.932C101.494 13.196 101.578 13.396 101.746 13.532C101.922 13.668 102.166 13.736 102.478 13.736H104.446V14.828H102.262C101.55 14.828 100.982 14.656 100.558 14.312C100.134 13.968 99.9217 13.5 99.9217 12.908C99.9217 12.532 100.022 12.2 100.222 11.912C100.43 11.616 100.714 11.384 101.074 11.216C101.434 11.048 101.846 10.964 102.31 10.964H105.31V17H103.858ZM99.6217 17L101.638 14.384H103.222L101.338 17H99.6217ZM106.969 17V10.964H110.077C110.749 10.964 111.277 11.112 111.661 11.408C112.053 11.696 112.249 12.088 112.249 12.584C112.249 12.896 112.157 13.164 111.973 13.388C111.797 13.612 111.553 13.784 111.241 13.904L111.229 13.796C111.613 13.9 111.925 14.084 112.165 14.348C112.413 14.604 112.537 14.916 112.537 15.284C112.537 15.62 112.433 15.92 112.225 16.184C112.025 16.448 111.749 16.652 111.397 16.796C111.045 16.932 110.645 17 110.197 17H106.969ZM108.397 16.592L107.617 15.86H109.957C110.301 15.86 110.557 15.8 110.725 15.68C110.901 15.56 110.989 15.38 110.989 15.14C110.989 14.9 110.901 14.72 110.725 14.6C110.557 14.48 110.301 14.42 109.957 14.42H107.749V13.388H109.825C110.145 13.388 110.369 13.332 110.497 13.22C110.633 13.108 110.701 12.944 110.701 12.728C110.701 12.512 110.633 12.356 110.497 12.26C110.369 12.156 110.145 12.104 109.825 12.104H107.557L108.397 11.336V16.592ZM118.002 17V10.964H119.586V17H118.002ZM113.73 17V10.964H115.314V17H113.73ZM114.474 14.468V13.196H118.926V14.468H114.474ZM124.23 17.192C123.574 17.192 122.994 17.056 122.49 16.784C121.986 16.504 121.594 16.124 121.314 15.644C121.034 15.156 120.894 14.604 120.894 13.988C120.894 13.356 121.034 12.8 121.314 12.32C121.594 11.84 121.986 11.464 122.49 11.192C122.994 10.912 123.574 10.772 124.23 10.772C124.886 10.772 125.466 10.912 125.97 11.192C126.474 11.464 126.866 11.84 127.146 12.32C127.426 12.8 127.566 13.352 127.566 13.976C127.566 14.6 127.426 15.156 127.146 15.644C126.866 16.124 126.474 16.504 125.97 16.784C125.466 17.056 124.886 17.192 124.23 17.192ZM124.23 15.872C124.566 15.872 124.862 15.792 125.118 15.632C125.374 15.472 125.574 15.252 125.718 14.972C125.862 14.684 125.934 14.356 125.934 13.988C125.934 13.612 125.862 13.284 125.718 13.004C125.574 12.716 125.374 12.492 125.118 12.332C124.862 12.172 124.566 12.092 124.23 12.092C123.894 12.092 123.598 12.172 123.342 12.332C123.086 12.492 122.886 12.716 122.742 13.004C122.598 13.284 122.526 13.612 122.526 13.988C122.526 14.356 122.598 14.684 122.742 14.972C122.886 15.252 123.086 15.472 123.342 15.632C123.598 15.792 123.894 15.872 124.23 15.872ZM133.467 15.008L134.451 15.968C134.139 16.36 133.759 16.664 133.311 16.88C132.871 17.088 132.367 17.192 131.799 17.192C131.175 17.192 130.615 17.056 130.119 16.784C129.623 16.504 129.231 16.124 128.943 15.644C128.663 15.156 128.523 14.604 128.523 13.988C128.523 13.364 128.667 12.812 128.955 12.332C129.243 11.844 129.635 11.464 130.131 11.192C130.635 10.912 131.203 10.772 131.835 10.772C132.387 10.772 132.883 10.88 133.323 11.096C133.763 11.304 134.139 11.6 134.451 11.984L133.467 12.956C133.299 12.7 133.083 12.492 132.819 12.332C132.563 12.172 132.263 12.092 131.919 12.092C131.575 12.092 131.271 12.172 131.007 12.332C130.743 12.492 130.535 12.716 130.383 13.004C130.231 13.292 130.155 13.62 130.155 13.988C130.155 14.348 130.231 14.672 130.383 14.96C130.535 15.248 130.743 15.472 131.007 15.632C131.271 15.792 131.575 15.872 131.919 15.872C132.271 15.872 132.575 15.792 132.831 15.632C133.087 15.472 133.299 15.264 133.467 15.008ZM137.168 17V11.504H138.752V17H137.168ZM135.128 12.236V10.964H140.792V12.236H135.128ZM143.463 17H141.879V10.964H143.463V17ZM142.671 9.92C142.407 9.92 142.179 9.832 141.987 9.656C141.803 9.472 141.711 9.252 141.711 8.996C141.711 8.724 141.803 8.5 141.987 8.324C142.179 8.148 142.407 8.06 142.671 8.06C142.943 8.06 143.171 8.152 143.355 8.336C143.539 8.512 143.631 8.732 143.631 8.996C143.631 9.252 143.539 9.472 143.355 9.656C143.171 9.832 142.943 9.92 142.671 9.92Z" fill="#757575"/>
</svg>
