<svg width="105" height="24" viewBox="0 0 105 24" fill="none" xmlns="http://www.w3.org/2000/svg">
<path fill-rule="evenodd" clip-rule="evenodd" d="M10.5021 1.40264C10.9577 1.14014 11.4742 1.00195 12 1.00195C12.5258 1.00195 13.0424 1.14015 13.4979 1.40267C13.4986 1.40307 13.4993 1.40348 13.5 1.40388L20.5 5.40387C20.9556 5.66692 21.334 6.04515 21.5973 6.50062C21.8606 6.95609 21.9995 7.47279 22 7.99888V16.0009C21.9995 16.527 21.8606 17.0437 21.5973 17.4992C21.334 17.9547 20.9556 18.3329 20.5 18.5959L20.4961 18.5981L13.5 22.5959C13.4994 22.5963 13.4988 22.5966 13.4982 22.597C13.0426 22.8596 12.5259 22.9979 12 22.9979C11.4741 22.9979 10.9575 22.8596 10.5019 22.597C10.5012 22.5966 10.5006 22.5963 10.5 22.5959L3.50386 18.5981L3.5 18.5959C3.04439 18.3329 2.66597 17.9547 2.40269 17.4992C2.13941 17.0437 2.00054 16.527 2 16.0009V7.99888C2.00054 7.47279 2.13941 6.95609 2.40269 6.50062C2.66597 6.04515 3.04439 5.66692 3.5 5.40388L3.50386 5.40165L10.5021 1.40264ZM12 3.00195C11.8245 3.00195 11.652 3.04816 11.5 3.13593L11.4961 3.13815L4.5 7.13593C4.49947 7.13623 4.49895 7.13654 4.49842 7.13684C4.34726 7.22448 4.22169 7.35021 4.13423 7.50151C4.04654 7.65321 4.00025 7.82528 4 8.0005V15.9993C4.00025 16.1745 4.04654 16.3466 4.13423 16.4983C4.22169 16.6496 4.34726 16.7753 4.49842 16.863C4.49895 16.8633 4.49947 16.8636 4.5 16.8639L11.5 20.8639C11.652 20.9516 11.8245 20.9979 12 20.9979C12.1755 20.9979 12.348 20.9516 12.5 20.8639L12.5039 20.8617L19.5 16.8639C19.5005 16.8636 19.5011 16.8633 19.5016 16.863C19.6527 16.7753 19.7783 16.6496 19.8658 16.4983C19.9535 16.3465 19.9998 16.1742 20 15.9989V8.00093C19.9998 7.82556 19.9535 7.65333 19.8658 7.50151C19.7783 7.35021 19.6527 7.22449 19.5016 7.13685C19.5011 7.13654 19.5005 7.13623 19.5 7.13593L12.5 3.13594C12.348 3.04817 12.1755 3.00195 12 3.00195Z" fill="#0B9F4C"/>
<path fill-rule="evenodd" clip-rule="evenodd" d="M2.43296 6.5014C2.70815 6.02256 3.31942 5.85747 3.79826 6.13267L12 10.8463L20.2017 6.13267C20.6805 5.85747 21.2918 6.02256 21.567 6.5014C21.8422 6.98024 21.6771 7.5915 21.1983 7.86669L13 12.5784V21.9997C13 22.552 12.5523 22.9997 12 22.9997C11.4477 22.9997 11 22.552 11 21.9997V12.5784L2.80169 7.86669C2.32285 7.5915 2.15776 6.98024 2.43296 6.5014Z" fill="#0B9F4C"/>
<path d="M35.032 17V8.42H38.596C39.164 8.42 39.66 8.512 40.084 8.696C40.508 8.88 40.836 9.14 41.068 9.476C41.3 9.812 41.416 10.208 41.416 10.664C41.416 11.08 41.3 11.452 41.068 11.78C40.836 12.1 40.508 12.352 40.084 12.536C39.66 12.72 39.164 12.812 38.596 12.812H36.772V12.2H38.704C39.32 12.2 39.856 12.296 40.312 12.488C40.776 12.672 41.136 12.94 41.392 13.292C41.656 13.636 41.788 14.048 41.788 14.528C41.788 15.016 41.66 15.448 41.404 15.824C41.148 16.2 40.788 16.492 40.324 16.7C39.86 16.9 39.32 17 38.704 17H35.032ZM36.652 15.644H38.716C39.156 15.644 39.504 15.54 39.76 15.332C40.016 15.116 40.144 14.816 40.144 14.432C40.144 14.064 40.016 13.78 39.76 13.58C39.504 13.372 39.156 13.268 38.716 13.268H36.532V11.936H38.512C38.904 11.936 39.212 11.84 39.436 11.648C39.668 11.448 39.784 11.176 39.784 10.832C39.784 10.496 39.668 10.236 39.436 10.052C39.212 9.868 38.904 9.776 38.512 9.776H36.652V15.644ZM49.7172 17V10.964H51.3012V17H49.7172ZM45.4452 17V10.964H47.0292V17H45.4452ZM46.1892 14.468V13.196H50.6412V14.468H46.1892ZM58.4049 17H56.9649V15.788L56.8929 15.596V13.328C56.8929 12.904 56.7569 12.576 56.4849 12.344C56.2129 12.112 55.8409 11.996 55.3689 11.996C55.0249 11.996 54.7009 12.064 54.3969 12.2C54.1009 12.328 53.8409 12.512 53.6169 12.752L52.7889 11.792C53.1089 11.472 53.4969 11.224 53.9529 11.048C54.4089 10.864 54.9049 10.772 55.4409 10.772C56.0249 10.772 56.5409 10.872 56.9889 11.072C57.4369 11.272 57.7849 11.56 58.0329 11.936C58.2809 12.304 58.4049 12.756 58.4049 13.292V17ZM54.9129 17.192C54.4489 17.192 54.0409 17.108 53.6889 16.94C53.3369 16.772 53.0609 16.54 52.8609 16.244C52.6689 15.948 52.5729 15.604 52.5729 15.212C52.5729 14.796 52.6929 14.444 52.9329 14.156C53.1729 13.86 53.5129 13.632 53.9529 13.472C54.4009 13.312 54.9169 13.232 55.5009 13.232H57.0489V14.264H55.6209C55.1889 14.264 54.8409 14.34 54.5769 14.492C54.3129 14.644 54.1809 14.864 54.1809 15.152C54.1809 15.416 54.2809 15.624 54.4809 15.776C54.6889 15.928 54.9569 16.004 55.2849 16.004C55.5969 16.004 55.8809 15.94 56.1369 15.812C56.3929 15.676 56.6009 15.492 56.7609 15.26C56.9209 15.028 57.0129 14.764 57.0369 14.468L57.4929 14.684C57.4929 15.18 57.3849 15.616 57.1689 15.992C56.9529 16.368 56.6489 16.664 56.2569 16.88C55.8729 17.088 55.4249 17.192 54.9129 17.192ZM63.6155 17V11.168L64.6355 12.14H62.2115C61.9315 12.14 61.6995 12.204 61.5155 12.332C61.3395 12.46 61.2515 12.66 61.2515 12.932C61.2515 13.196 61.3355 13.396 61.5035 13.532C61.6795 13.668 61.9235 13.736 62.2355 13.736H64.2035V14.828H62.0195C61.3075 14.828 60.7395 14.656 60.3155 14.312C59.8915 13.968 59.6795 13.5 59.6795 12.908C59.6795 12.532 59.7795 12.2 59.9795 11.912C60.1875 11.616 60.4715 11.384 60.8315 11.216C61.1915 11.048 61.6035 10.964 62.0675 10.964H65.0675V17H63.6155ZM59.3795 17L61.3955 14.384H62.9795L61.0955 17H59.3795ZM66.7264 17V10.964H69.8344C70.5064 10.964 71.0344 11.112 71.4184 11.408C71.8104 11.696 72.0064 12.088 72.0064 12.584C72.0064 12.896 71.9144 13.164 71.7304 13.388C71.5544 13.612 71.3104 13.784 70.9984 13.904L70.9864 13.796C71.3704 13.9 71.6824 14.084 71.9224 14.348C72.1704 14.604 72.2944 14.916 72.2944 15.284C72.2944 15.62 72.1904 15.92 71.9824 16.184C71.7824 16.448 71.5064 16.652 71.1544 16.796C70.8024 16.932 70.4024 17 69.9544 17H66.7264ZM68.1544 16.592L67.3744 15.86H69.7144C70.0584 15.86 70.3144 15.8 70.4824 15.68C70.6584 15.56 70.7464 15.38 70.7464 15.14C70.7464 14.9 70.6584 14.72 70.4824 14.6C70.3144 14.48 70.0584 14.42 69.7144 14.42H67.5064V13.388H69.5824C69.9024 13.388 70.1264 13.332 70.2544 13.22C70.3904 13.108 70.4584 12.944 70.4584 12.728C70.4584 12.512 70.3904 12.356 70.2544 12.26C70.1264 12.156 69.9024 12.104 69.5824 12.104H67.3144L68.1544 11.336V16.592ZM77.7602 17V10.964H79.3442V17H77.7602ZM73.4882 17V10.964H75.0722V17H73.4882ZM74.2322 14.468V13.196H78.6842V14.468H74.2322ZM83.9879 17.192C83.3319 17.192 82.7519 17.056 82.2479 16.784C81.7439 16.504 81.3519 16.124 81.0719 15.644C80.7919 15.156 80.6519 14.604 80.6519 13.988C80.6519 13.356 80.7919 12.8 81.0719 12.32C81.3519 11.84 81.7439 11.464 82.2479 11.192C82.7519 10.912 83.3319 10.772 83.9879 10.772C84.6439 10.772 85.2239 10.912 85.7279 11.192C86.2319 11.464 86.6239 11.84 86.9039 12.32C87.1839 12.8 87.3239 13.352 87.3239 13.976C87.3239 14.6 87.1839 15.156 86.9039 15.644C86.6239 16.124 86.2319 16.504 85.7279 16.784C85.2239 17.056 84.6439 17.192 83.9879 17.192ZM83.9879 15.872C84.3239 15.872 84.6199 15.792 84.8759 15.632C85.1319 15.472 85.3319 15.252 85.4759 14.972C85.6199 14.684 85.6919 14.356 85.6919 13.988C85.6919 13.612 85.6199 13.284 85.4759 13.004C85.3319 12.716 85.1319 12.492 84.8759 12.332C84.6199 12.172 84.3239 12.092 83.9879 12.092C83.6519 12.092 83.3559 12.172 83.0999 12.332C82.8439 12.492 82.6439 12.716 82.4999 13.004C82.3559 13.284 82.2839 13.612 82.2839 13.988C82.2839 14.356 82.3559 14.684 82.4999 14.972C82.6439 15.252 82.8439 15.472 83.0999 15.632C83.3559 15.792 83.6519 15.872 83.9879 15.872ZM93.2248 15.008L94.2088 15.968C93.8968 16.36 93.5168 16.664 93.0688 16.88C92.6288 17.088 92.1248 17.192 91.5568 17.192C90.9328 17.192 90.3728 17.056 89.8768 16.784C89.3808 16.504 88.9888 16.124 88.7008 15.644C88.4208 15.156 88.2808 14.604 88.2808 13.988C88.2808 13.364 88.4248 12.812 88.7128 12.332C89.0008 11.844 89.3928 11.464 89.8888 11.192C90.3928 10.912 90.9608 10.772 91.5928 10.772C92.1448 10.772 92.6408 10.88 93.0808 11.096C93.5208 11.304 93.8968 11.6 94.2088 11.984L93.2248 12.956C93.0568 12.7 92.8408 12.492 92.5768 12.332C92.3208 12.172 92.0208 12.092 91.6768 12.092C91.3328 12.092 91.0288 12.172 90.7648 12.332C90.5008 12.492 90.2928 12.716 90.1408 13.004C89.9888 13.292 89.9128 13.62 89.9128 13.988C89.9128 14.348 89.9888 14.672 90.1408 14.96C90.2928 15.248 90.5008 15.472 90.7648 15.632C91.0288 15.792 91.3328 15.872 91.6768 15.872C92.0288 15.872 92.3328 15.792 92.5888 15.632C92.8448 15.472 93.0568 15.264 93.2248 15.008ZM96.9254 17V11.504H98.5094V17H96.9254ZM94.8854 12.236V10.964H100.549V12.236H94.8854ZM103.221 17H101.637V10.964H103.221V17ZM102.429 9.92C102.165 9.92 101.937 9.832 101.745 9.656C101.561 9.472 101.469 9.252 101.469 8.996C101.469 8.724 101.561 8.5 101.745 8.324C101.937 8.148 102.165 8.06 102.429 8.06C102.701 8.06 102.929 8.152 103.113 8.336C103.297 8.512 103.389 8.732 103.389 8.996C103.389 9.252 103.297 9.472 103.113 9.656C102.929 9.832 102.701 9.92 102.429 9.92Z" fill="#0B9F4C"/>
</svg>
