<svg width="16" height="16" viewBox="0 0 16 16" fill="none" xmlns="http://www.w3.org/2000/svg">
<path d="M8 14.25L8.345 14.916C8.23839 14.9712 8.12007 15.0001 8 15.0001C7.87993 15.0001 7.76161 14.9712 7.655 14.916L7.647 14.912L7.629 14.902C7.52425 14.848 7.42089 14.7913 7.319 14.732C6.10001 14.0386 4.95011 13.2303 3.885 12.318C2.045 10.731 0 8.35 0 5.5C0 2.836 2.086 1 4.25 1C5.797 1 7.153 1.802 8 3.02C8.847 1.802 10.203 1 11.75 1C13.914 1 16 2.836 16 5.5C16 8.35 13.955 10.731 12.115 12.318C10.9596 13.3064 9.70494 14.1724 8.371 14.902L8.353 14.912L8.347 14.915H8.345L8 14.25ZM4.25 2.5C2.914 2.5 1.5 3.664 1.5 5.5C1.5 7.65 3.08 9.644 4.865 11.182C5.83895 12.0149 6.8885 12.7551 8 13.393C9.1115 12.7551 10.161 12.0149 11.135 11.182C12.92 9.644 14.5 7.65 14.5 5.5C14.5 3.664 13.086 2.5 11.75 2.5C10.377 2.5 9.141 3.486 8.721 4.956C8.67677 5.11317 8.5824 5.25159 8.45224 5.35018C8.32208 5.44877 8.16328 5.50212 8 5.50212C7.83672 5.50212 7.67791 5.44877 7.54776 5.35018C7.4176 5.25159 7.32323 5.11317 7.279 4.956C6.859 3.486 5.623 2.5 4.25 2.5Z" fill="black"/>
</svg>


