<svg width="79" height="34" viewBox="0 0 79 34" fill="none" xmlns="http://www.w3.org/2000/svg">
<rect x="0.5" y="1" width="78" height="32" rx="5.5" fill="white"/>
<rect x="0.5" y="1" width="78" height="32" rx="5.5" stroke="#E9E9E9"/>
<path d="M40.4103 14.9347C40.3801 17.3029 42.5351 18.6243 44.1584 19.4101C45.8263 20.2162 46.3865 20.7332 46.3799 21.4542C46.3674 22.5574 45.0495 23.0444 43.8162 23.0633C41.6645 23.0964 40.4134 22.4863 39.4188 22.0248L38.6437 25.6275C39.6416 26.0842 41.4894 26.4825 43.4054 26.5C47.9032 26.5 50.8457 24.2947 50.8617 20.8755C50.8793 16.536 44.8188 16.2958 44.8602 14.3562C44.8745 13.7681 45.4395 13.1405 46.6776 12.9809C47.2904 12.9003 48.982 12.8386 50.9 13.7159L51.6527 10.2302C50.6213 9.8572 49.2957 9.5 47.6452 9.5C43.4119 9.5 40.4343 11.7353 40.4103 14.9347ZM58.886 9.80024C58.0647 9.80024 57.3726 10.2761 57.0637 11.0063L50.6389 26.244H55.1333L56.0277 23.7888H61.5198L62.0387 26.244H66L62.5432 9.80024H58.886ZM59.5147 14.2423L60.8118 20.4171H57.2596L59.5147 14.2423ZM34.961 9.80044L31.4183 26.2438H35.7012L39.2422 9.80003L34.961 9.80044ZM28.6253 9.80044L24.1675 20.9925L22.3642 11.476C22.1526 10.4137 21.3171 9.80024 20.3892 9.80024H13.1021L13 10.2777C14.496 10.6002 16.1957 11.1203 17.2255 11.6767C17.8557 12.0166 18.0354 12.3138 18.2424 13.1216L21.6578 26.244H26.1838L33.1226 9.80024L28.6253 9.80044Z" fill="url(#paint0_linear_938_504)"/>
<defs>
<linearGradient id="paint0_linear_938_504" x1="2449.62" y1="60.602" x2="2498.5" y2="-1685.34" gradientUnits="userSpaceOnUse">
<stop stop-color="#222357"/>
<stop offset="1" stop-color="#254AA5"/>
</linearGradient>
</defs>
</svg>
