<svg width="115" height="44" viewBox="0 0 115 44" fill="none" xmlns="http://www.w3.org/2000/svg">
<rect width="115" height="44" rx="6" fill="#221F1F"/>
<path fill-rule="evenodd" clip-rule="evenodd" d="M30.3529 13.6471H24.4705L24.4705 19.5294L30.3529 19.5294V13.6471ZM22.8236 19.5521C22.8357 20.4513 23.5684 21.1765 24.4705 21.1765H30.3529C31.2626 21.1765 32 20.439 32 19.5294V13.6471C32 12.7374 31.2626 12 30.3529 12H24.4705C23.5684 12 22.8357 12.7252 22.8236 13.6243C22.8235 13.6319 22.8234 13.6395 22.8234 13.6471V19.5294C22.8234 19.537 22.8235 19.5446 22.8236 19.5521ZM21.1766 13.6471C21.1766 13.6395 21.1765 13.6319 21.1764 13.6243C21.1643 12.7252 20.4316 12 19.5295 12H13.6471C12.7374 12 12 12.7374 12 13.6471V19.5294C12 20.439 12.7374 21.1765 13.6471 21.1765H19.5295C20.4316 21.1765 21.1643 20.4513 21.1764 19.5521C21.1765 19.5446 21.1766 19.537 21.1766 19.5294V13.6471ZM22.8236 30.3757C22.8357 31.2748 23.5684 32 24.4705 32H30.3529C31.2626 32 32 31.2626 32 30.3529V24.4706C32 23.561 31.2626 22.8235 30.3529 22.8235H24.4705C23.5684 22.8235 22.8357 23.5487 22.8236 24.4479C22.8235 24.4554 22.8234 24.463 22.8234 24.4706V30.3529C22.8234 30.3605 22.8235 30.3681 22.8236 30.3757ZM21.1764 24.4479C21.1643 23.5487 20.4316 22.8235 19.5295 22.8235L13.6471 22.8235C12.7374 22.8235 12 23.561 12 24.4706V30.3529C12 31.2626 12.7374 32 13.6471 32H19.5295C20.4316 32 21.1643 31.2748 21.1764 30.3757C21.1765 30.3681 21.1766 30.3605 21.1766 30.3529V24.4706C21.1766 24.463 21.1765 24.4554 21.1764 24.4479ZM19.5295 13.6471H13.6471V19.5294L19.5295 19.5294L19.5295 13.6471ZM30.3529 24.4706H24.4705L24.4705 30.3529H30.3529V24.4706ZM19.5295 24.4706H13.6471V30.3529H19.5295L19.5295 24.4706Z" fill="white"/>
<path d="M47.06 27.5H45.335V16.775H47.06V27.5ZM54.785 27.5H52.37L46.685 21.935H46.91L51.965 16.775H54.155L48.755 22.145V21.725L54.785 27.5ZM62.3291 27.5H60.7841V26.015L60.7091 25.7V22.895C60.7091 22.335 60.5291 21.9 60.1691 21.59C59.8091 21.27 59.3191 21.11 58.6991 21.11C58.2491 21.11 57.8291 21.2 57.4391 21.38C57.0591 21.56 56.7291 21.81 56.4491 22.13L55.4891 21.08C55.8991 20.67 56.3791 20.35 56.9291 20.12C57.4791 19.89 58.0891 19.775 58.7591 19.775C59.4691 19.775 60.0891 19.9 60.6191 20.15C61.1591 20.39 61.5791 20.74 61.8791 21.2C62.1791 21.66 62.3291 22.21 62.3291 22.85V27.5ZM58.1291 27.74C57.5591 27.74 57.0541 27.635 56.6141 27.425C56.1741 27.215 55.8341 26.93 55.5941 26.57C55.3541 26.21 55.2341 25.79 55.2341 25.31C55.2341 24.79 55.3841 24.35 55.6841 23.99C55.9841 23.62 56.3991 23.34 56.9291 23.15C57.4691 22.95 58.0891 22.85 58.7891 22.85H60.8891V24.005H58.9391C58.3491 24.005 57.8691 24.11 57.4991 24.32C57.1391 24.53 56.9591 24.84 56.9591 25.25C56.9591 25.62 57.0991 25.915 57.3791 26.135C57.6591 26.345 58.0241 26.45 58.4741 26.45C58.9041 26.45 59.2991 26.36 59.6591 26.18C60.0191 26 60.3041 25.755 60.5141 25.445C60.7341 25.125 60.8591 24.76 60.8891 24.35L61.4291 24.605C61.4291 25.215 61.2891 25.76 61.0091 26.24C60.7291 26.71 60.3391 27.08 59.8391 27.35C59.3391 27.61 58.7691 27.74 58.1291 27.74ZM66.1302 27.5V20.57H67.8102V27.5H66.1302ZM63.5052 21.38V20.015H70.4202V21.38H63.5052ZM78.1347 27.5H76.5897V26.015L76.5147 25.7V22.895C76.5147 22.335 76.3347 21.9 75.9747 21.59C75.6147 21.27 75.1247 21.11 74.5047 21.11C74.0547 21.11 73.6347 21.2 73.2447 21.38C72.8647 21.56 72.5347 21.81 72.2547 22.13L71.2947 21.08C71.7047 20.67 72.1847 20.35 72.7347 20.12C73.2847 19.89 73.8947 19.775 74.5647 19.775C75.2747 19.775 75.8947 19.9 76.4247 20.15C76.9647 20.39 77.3847 20.74 77.6847 21.2C77.9847 21.66 78.1347 22.21 78.1347 22.85V27.5ZM73.9347 27.74C73.3647 27.74 72.8597 27.635 72.4197 27.425C71.9797 27.215 71.6397 26.93 71.3997 26.57C71.1597 26.21 71.0397 25.79 71.0397 25.31C71.0397 24.79 71.1897 24.35 71.4897 23.99C71.7897 23.62 72.2047 23.34 72.7347 23.15C73.2747 22.95 73.8947 22.85 74.5947 22.85H76.6947V24.005H74.7447C74.1547 24.005 73.6747 24.11 73.3047 24.32C72.9447 24.53 72.7647 24.84 72.7647 25.25C72.7647 25.62 72.9047 25.915 73.1847 26.135C73.4647 26.345 73.8297 26.45 74.2797 26.45C74.7097 26.45 75.1047 26.36 75.4647 26.18C75.8247 26 76.1097 25.755 76.3197 25.445C76.5397 25.125 76.6647 24.76 76.6947 24.35L77.2347 24.605C77.2347 25.215 77.0947 25.76 76.8147 26.24C76.5347 26.71 76.1447 27.08 75.6447 27.35C75.1447 27.61 74.5747 27.74 73.9347 27.74ZM79.2508 27.5V26.105H79.7908C80.0608 26.105 80.2608 26.04 80.3908 25.91C80.5308 25.78 80.6108 25.555 80.6308 25.235L81.1108 20.015H86.8108V27.5H85.1308V20.285L86.3308 21.38H81.4258L82.7008 20.285L82.1908 25.565C82.1208 26.285 81.9208 26.79 81.5908 27.08C81.2608 27.36 80.7558 27.5 80.0758 27.5H79.2508ZM92.5967 27.74C91.8067 27.74 91.1017 27.57 90.4817 27.23C89.8717 26.89 89.3917 26.42 89.0417 25.82C88.6917 25.22 88.5167 24.53 88.5167 23.75C88.5167 22.98 88.6917 22.295 89.0417 21.695C89.3917 21.095 89.8717 20.625 90.4817 20.285C91.1017 19.945 91.8067 19.775 92.5967 19.775C93.3967 19.775 94.1017 19.945 94.7117 20.285C95.3317 20.625 95.8117 21.095 96.1517 21.695C96.5017 22.295 96.6767 22.98 96.6767 23.75C96.6767 24.53 96.5017 25.22 96.1517 25.82C95.8117 26.42 95.3317 26.89 94.7117 27.23C94.1017 27.57 93.3967 27.74 92.5967 27.74ZM92.5967 26.33C93.0667 26.33 93.4767 26.22 93.8267 26C94.1767 25.78 94.4467 25.48 94.6367 25.1C94.8367 24.71 94.9367 24.26 94.9367 23.75C94.9367 23.25 94.8367 22.81 94.6367 22.43C94.4467 22.04 94.1767 21.735 93.8267 21.515C93.4767 21.295 93.0667 21.185 92.5967 21.185C92.1367 21.185 91.7317 21.295 91.3817 21.515C91.0317 21.735 90.7567 22.04 90.5567 22.43C90.3667 22.81 90.2717 23.25 90.2717 23.75C90.2717 24.26 90.3667 24.71 90.5567 25.1C90.7567 25.48 91.0317 25.78 91.3817 26C91.7317 26.22 92.1367 26.33 92.5967 26.33ZM98.4007 27.5V20.015H103.816V21.38H98.7607L100.081 20.345V27.5H98.4007Z" fill="white"/>
</svg>
