<svg width="16" height="16" viewBox="0 0 16 16" fill="none" xmlns="http://www.w3.org/2000/svg">
<path fill-rule="evenodd" clip-rule="evenodd" d="M4.76 1.5C3.482 1.5 2.395 1.96 1.633 2.796C0.878 3.624 0.5 4.758 0.5 6.013C0.5 8.193 1.61 9.93 3.02 11.281C4.424 12.626 6.19 13.649 7.652 14.414C7.75883 14.47 7.87761 14.4995 7.99826 14.4998C8.1189 14.5002 8.23784 14.4714 8.345 14.416C9.808 13.659 11.573 12.628 12.978 11.276C14.388 9.921 15.5 8.178 15.5 6.013C15.5 4.753 15.12 3.62 14.364 2.792C13.6 1.957 12.514 1.5 11.24 1.5C10.164 1.5 9.274 1.898 8.597 2.65C8.3656 2.91059 8.16526 3.19718 8 3.504C7.83474 3.19718 7.6344 2.91059 7.403 2.65C6.726 1.898 5.836 1.5 4.76 1.5Z" fill="#6746CE"/>
</svg>

