<svg width="16" height="16" viewBox="0 0 16 16" fill="none" xmlns="http://www.w3.org/2000/svg">
<g clip-path="url(#clip0_1542_14446)">
<path fill-rule="evenodd" clip-rule="evenodd" d="M7.99995 0.900024C8.25987 0.900024 8.49023 1.06738 8.57057 1.31457L10.0608 5.90002H14.9999C15.2629 5.90002 15.4952 6.07124 15.5731 6.3224C15.6509 6.57357 15.5561 6.84616 15.3393 6.99486L11.3386 9.73819L12.8809 14.3082C12.9644 14.5555 12.8784 14.8284 12.6682 14.9832C12.4579 15.138 12.1718 15.1391 11.9604 14.9859L7.99995 12.116L4.03951 14.9859C3.82813 15.1391 3.54195 15.138 3.33173 14.9832C3.1215 14.8284 3.03547 14.5555 3.11895 14.3082L4.66132 9.73819L0.66063 6.99486C0.443767 6.84616 0.348998 6.57357 0.426841 6.3224C0.504683 6.07124 0.736996 5.90002 0.999947 5.90002H5.93905L7.42933 1.31457C7.50966 1.06738 7.74003 0.900024 7.99995 0.900024ZM7.99995 3.44123L6.94557 6.68548C6.86523 6.93267 6.63487 7.10002 6.37495 7.10002H2.9359L5.71426 9.00519C5.9357 9.15703 6.0293 9.4375 5.94344 9.69189L4.85674 12.9117L7.64788 10.8892C7.85792 10.737 8.14198 10.737 8.35201 10.8892L11.1431 12.9117L10.0565 9.69189C9.97059 9.4375 10.0642 9.15703 10.2856 9.00519L13.064 7.10002H9.62495C9.36503 7.10002 9.13466 6.93267 9.05433 6.68548L7.99995 3.44123Z" fill="#FFBD00"/>
</g>
<defs>
<clipPath id="clip0_1542_14446">
<rect width="16" height="16" fill="white"/>
</clipPath>
</defs>
</svg>
