<svg width="18" height="14" viewBox="0 0 18 14" fill="none" xmlns="http://www.w3.org/2000/svg">
<path d="M17.7072 7.707C17.8947 7.51947 18 7.26517 18 7C18 6.73484 17.8947 6.48053 17.7072 6.293L12.0502 0.636002C11.8616 0.453844 11.609 0.35305 11.3468 0.355328C11.0846 0.357606 10.8338 0.462776 10.6484 0.648184C10.463 0.833593 10.3578 1.08441 10.3555 1.3466C10.3533 1.6088 10.4541 1.8614 10.6362 2.05L14.5862 6L1.34321 6C1.078 6 0.823643 6.10536 0.636107 6.29289C0.448571 6.48043 0.343215 6.73478 0.343215 7C0.343215 7.26522 0.448571 7.51957 0.636107 7.70711C0.823643 7.89464 1.078 8 1.34321 8L14.5862 8L10.6362 11.95C10.4541 12.1386 10.3533 12.3912 10.3555 12.6534C10.3578 12.9156 10.463 13.1664 10.6484 13.3518C10.8338 13.5372 11.0846 13.6424 11.3468 13.6447C11.609 13.647 11.8616 13.5462 12.0502 13.364L17.7072 7.707Z" fill="black"/>
</svg>
