<svg width="28" height="24" viewBox="0 0 28 24" fill="none" xmlns="http://www.w3.org/2000/svg">
<path d="M14 22.7142L14.6038 23.8559C14.4172 23.9506 14.2101 24 14 24C13.7899 24 13.5828 23.9506 13.3963 23.8559L13.3822 23.849L13.3507 23.8319C13.1674 23.7392 12.9865 23.6421 12.8082 23.5405C10.675 22.3518 8.66269 20.9661 6.79875 19.4022C3.57875 16.6816 0 12.5999 0 7.71425C0 3.14741 3.6505 0 7.4375 0C10.1447 0 12.5177 1.37485 14 3.46284C15.4823 1.37485 17.8552 0 20.5625 0C24.3495 0 28 3.14741 28 7.71425C28 12.5999 24.4212 16.6816 21.2013 19.4022C19.1794 21.0966 16.9836 22.5811 14.6493 23.8319L14.6177 23.849L14.6073 23.8542H14.6038L14 22.7142ZM7.4375 2.57142C5.0995 2.57142 2.625 4.56684 2.625 7.71425C2.625 11.4 5.39 14.8182 8.51375 17.4548C10.2182 18.8826 12.0549 20.1515 14 21.245C15.9451 20.1515 17.7818 18.8826 19.4862 17.4548C22.61 14.8182 25.375 11.4 25.375 7.71425C25.375 4.56684 22.9005 2.57142 20.5625 2.57142C18.1597 2.57142 15.9967 4.2617 15.2617 6.78168C15.1844 7.05113 15.0192 7.28841 14.7914 7.45742C14.5636 7.62642 14.2857 7.71789 14 7.71789C13.7143 7.71789 13.4364 7.62642 13.2086 7.45742C12.9808 7.28841 12.8156 7.05113 12.7382 6.78168C12.0033 4.2617 9.84025 2.57142 7.4375 2.57142Z" fill="black"/>
</svg>
