<svg width="53" height="18" viewBox="0 0 53 18" fill="none" xmlns="http://www.w3.org/2000/svg">
<path d="M27.4103 5.9347C27.3801 8.30287 29.5351 9.62433 31.1584 10.4101C32.8263 11.2162 33.3865 11.7332 33.3799 12.4542C33.3674 13.5574 32.0495 14.0444 30.8162 14.0633C28.6645 14.0964 27.4134 13.4863 26.4188 13.0248L25.6437 16.6275C26.6416 17.0842 28.4894 17.4825 30.4054 17.5C34.9032 17.5 37.8457 15.2947 37.8617 11.8755C37.8793 7.53604 31.8188 7.29585 31.8602 5.35623C31.8745 4.7681 32.4395 4.14048 33.6776 3.9809C34.2904 3.90029 35.982 3.8386 37.9 4.71586L38.6527 1.23023C37.6213 0.857201 36.2957 0.5 34.6452 0.5C30.4119 0.5 27.4343 2.73533 27.4103 5.9347ZM45.886 0.800236C45.0647 0.800236 44.3726 1.27609 44.0637 2.00633L37.6389 17.244H42.1333L43.0277 14.7888H48.5198L49.0387 17.244H53L49.5432 0.800236H45.886ZM46.5147 5.24231L47.8118 11.4171H44.2596L46.5147 5.24231ZM21.961 0.800442L18.4183 17.2438H22.7012L26.2422 0.800032L21.961 0.800442ZM15.6253 0.800442L11.1675 11.9925L9.36423 2.47601C9.15264 1.41367 8.31707 0.800236 7.38915 0.800236H0.102066L0 1.27774C1.49601 1.60018 3.19573 2.12025 4.22551 2.67672C4.85571 3.01664 5.03541 3.3138 5.24245 4.12156L8.65784 17.244H13.1838L20.1226 0.800236L15.6253 0.800442Z" fill="url(#paint0_linear_938_505)"/>
<defs>
<linearGradient id="paint0_linear_938_505" x1="2436.62" y1="51.602" x2="2485.5" y2="-1694.34" gradientUnits="userSpaceOnUse">
<stop stop-color="#222357"/>
<stop offset="1" stop-color="#254AA5"/>
</linearGradient>
</defs>
</svg>
